<svg width="32" height="32" viewBox="0 0 32 32" fill="none" xmlns="http://www.w3.org/2000/svg">
    <rect width="32" height="32" fill="#3995FE"/>
    <path fill-rule="evenodd" clip-rule="evenodd" d="M18.3918 8.02672C17.677 8.18104 16.9997 8.68347 16.5732 9.37577C16.3675 9.70974 16.198 10.2204 16.137 10.6903C16.0903 11.0492 16.12 11.889 16.2057 12.6333C16.2797 13.276 16.3328 13.8998 16.315 13.917C16.3009 13.9306 16.2961 13.9138 16.1613 13.38C15.7312 11.6771 15.4837 10.9957 15.0789 10.4003C14.4645 9.49648 13.3649 8.96163 12.3421 9.06907C11.7147 9.13496 11.1846 9.36837 10.7863 9.75401C10.3265 10.1993 10.1316 10.6526 10.0285 11.5161C9.97419 11.9713 9.85583 12.2592 9.61272 12.5273C9.56977 12.5747 9.36823 12.7341 9.16483 12.8816C8.43775 13.4088 8.15561 13.7764 8.0349 14.3538C7.97343 14.6479 7.99573 15.1695 8.08166 15.4478C8.20496 15.8471 8.53237 16.3482 8.8696 16.6537C9.58852 17.305 10.6108 17.6523 11.5116 17.5513C12.0523 17.4907 12.8414 17.2412 13.9315 16.7862C14.9266 16.3709 15.4887 16.1555 15.514 16.18C15.5323 16.1977 15.0476 16.6728 14.7738 16.9055C14.6302 17.0276 14.3847 17.2301 14.2281 17.3557C13.0328 18.3141 12.3577 19.0519 11.8848 19.9165C11.1841 21.1976 10.8228 23.0171 11.0863 23.9379C11.1615 24.2008 11.2847 24.4096 11.4669 24.5828C11.7286 24.8315 12.099 24.9896 12.4433 24.9995C12.7191 25.0074 12.821 24.9189 12.8625 24.6356C12.8922 24.4332 12.8662 24.1848 12.7592 23.6489C12.4037 21.868 12.4883 20.783 13.0707 19.6548C13.4195 18.9792 13.8131 18.4984 14.5819 17.8088C15.1835 17.2692 15.5687 16.9046 15.808 16.6485C15.9112 16.538 15.9956 16.4553 15.9955 16.4647C15.9954 16.4977 15.8781 16.9054 15.7255 17.4031C15.3769 18.5401 15.2774 19.0769 15.2765 19.8246C15.2757 20.4724 15.3648 20.9408 15.5826 21.4329C15.9771 22.3245 16.6789 22.9777 17.5432 23.258C18.0532 23.4233 18.7417 23.415 19.1891 23.2381C19.6257 23.0655 19.9038 22.8183 20.354 22.2025C20.6458 21.8034 20.7803 21.662 20.9864 21.5376C21.2006 21.4083 21.3497 21.3577 21.7727 21.2709C22.4666 21.1284 22.8091 20.9645 23.1927 20.5915C23.8813 19.922 24.0794 18.8499 23.6722 17.9965C23.3686 17.3603 22.6828 16.7794 21.8083 16.418C21.2115 16.1713 20.537 16.0196 19.1866 15.8283C18.1029 15.6748 17.7275 15.6152 17.7275 15.5966C17.7275 15.5741 18.2339 15.5558 19.2934 15.54C20.9733 15.5149 21.6477 15.4109 22.3554 15.0678C22.778 14.8629 23.1205 14.602 23.381 14.2867C23.839 13.7323 24.0515 13.1215 23.9894 12.5374C23.9569 12.2313 23.9123 12.0792 23.7768 11.8124C23.6792 11.6203 23.6202 11.5395 23.453 11.3694C23.2002 11.1121 22.959 10.9535 22.4213 10.6913C21.9098 10.4418 21.6739 10.2948 21.4394 10.0791C21.2141 9.87197 21.1062 9.73653 20.884 9.38231C20.6449 9.00113 20.513 8.83382 20.2837 8.62056C19.9724 8.33119 19.6416 8.13746 19.3053 8.04765C19.1077 7.99487 18.5938 7.98309 18.3918 8.02672Z" fill="white"/>
</svg>