<svg width="86" height="83" viewBox="0 0 86 83" fill="none" xmlns="http://www.w3.org/2000/svg">
    <g clip-path="url(#clip0_467_727)">
        <path d="M44.9521 -14.4941C45.8829 -14.4724 46.7654 -14.387 47.2217 -14.2627C48.8912 -13.808 50.5578 -12.8205 52.1455 -11.3154C53.3075 -10.2139 53.9734 -9.35684 55.2148 -7.33887C56.3966 -5.41799 56.9903 -4.65399 58.2148 -3.50586C59.4989 -2.30191 60.7887 -1.48853 63.4893 -0.145508C66.2893 1.24688 67.4982 2.06467 68.7686 3.38281C69.6144 4.26056 69.8933 4.65201 70.3809 5.63086C71.0647 7.00345 71.2825 7.7592 71.4473 9.33984C71.7564 12.3072 70.7022 15.449 68.3623 18.3369C67.046 19.9615 65.3071 21.3156 63.1445 22.3848C59.5362 24.1687 56.0935 24.7274 47.2832 24.8613C44.5018 24.9036 42.4418 24.9487 41.0762 24.999C40.3947 25.0242 39.879 25.0507 39.5312 25.0791C39.3597 25.0931 39.2156 25.1087 39.1094 25.127C39.0602 25.1354 38.9959 25.1492 38.9346 25.1709C38.9069 25.1807 38.8474 25.2022 38.7861 25.2461C38.7401 25.2791 38.5694 25.4134 38.5693 25.6641C38.5693 25.8785 38.6983 26.0067 38.7393 26.0439C38.7911 26.091 38.8419 26.119 38.8672 26.1318C38.9219 26.1595 38.979 26.178 39.0195 26.1904C39.1073 26.2172 39.2252 26.2454 39.3652 26.2744C39.6503 26.3335 40.0838 26.4092 40.6865 26.5068C41.8952 26.7025 43.814 26.9886 46.6582 27.3994C53.7408 28.4224 57.2285 29.2276 60.2988 30.5215C64.8139 32.4242 68.3002 35.4616 69.8262 38.7227C71.8732 43.0975 70.8769 48.6101 67.4102 52.0469C66.433 53.0156 65.5232 53.6981 64.4258 54.2334C63.322 54.7718 62.007 55.1714 60.2041 55.5488C57.9614 56.0184 57.1136 56.3037 55.917 57.04C54.7449 57.7614 53.9903 58.5894 52.4521 60.7344C50.1121 63.9979 48.7204 65.2329 46.5557 66.1055C44.3292 67.003 40.8372 67.0526 38.2588 66.2002C33.8691 64.7488 30.2876 61.3608 28.2676 56.7061C27.1568 54.1465 26.697 51.7096 26.7012 48.2969C26.7061 44.3628 27.2149 41.5418 29.0381 35.4785C29.4392 34.1446 29.7937 32.9296 30.0488 32.0254C30.1763 31.5737 30.2799 31.1969 30.3516 30.9209C30.3872 30.7835 30.4164 30.6674 30.4365 30.5781C30.4465 30.534 30.4544 30.4924 30.4609 30.4561C30.4655 30.4307 30.4754 30.3714 30.4756 30.3115C30.4756 30.229 30.4528 30.0367 30.2695 29.9033C30.1031 29.7824 29.9314 29.8056 29.8789 29.8154C29.7705 29.8358 29.693 29.8898 29.6855 29.8945C29.6395 29.9242 29.5972 29.9609 29.5703 29.9844C29.5075 30.0393 29.4251 30.1179 29.334 30.209C29.1487 30.3941 28.8969 30.6581 28.623 30.957C27.3832 32.3103 25.3756 34.2488 22.2178 37.1367C18.1516 40.8552 16.0406 43.4759 14.1748 47.1611C11.0489 53.335 10.6163 59.2675 12.4951 68.8633C13.0584 71.7395 13.1752 72.9903 13.0332 73.9785C12.9281 74.7097 12.7606 75.0537 12.5576 75.2334C12.3617 75.4068 12.0287 75.5181 11.3418 75.498C9.6669 75.449 7.83859 74.6574 6.54883 73.4072C5.6621 72.5475 5.05785 71.5099 4.68457 70.1797C4.02423 67.8269 4.13585 64.251 4.8916 60.3701C5.64453 56.5039 7.02356 52.4029 8.83594 49.0244C11.2756 44.4771 14.7653 40.5765 21.0137 35.4678C21.8392 34.7929 23.1322 33.7054 23.8896 33.0488C24.6207 32.4153 25.6254 31.4591 26.4336 30.6514C26.8379 30.2473 27.1982 29.8751 27.4531 29.5957C27.5792 29.4575 27.6873 29.334 27.7627 29.2373C27.7982 29.1918 27.839 29.1356 27.8711 29.0791C27.8852 29.0543 27.9142 29.0006 27.9326 28.9316C27.9401 28.9036 28.0127 28.6423 27.7998 28.4316V28.4307L27.7139 28.3623C27.6276 28.3073 27.5456 28.2912 27.5088 28.2852C27.4482 28.2752 27.3946 28.2763 27.3604 28.2783C27.2904 28.2825 27.2186 28.2957 27.1572 28.3096C27.0297 28.3383 26.8646 28.3875 26.6719 28.4512C26.282 28.5799 25.7272 28.7849 25.0215 29.0605C23.6071 29.613 21.5578 30.4601 18.9443 31.5723C13.2265 34.0056 9.14033 35.3152 6.37891 35.6309C1.80678 36.1533 -3.41866 34.3514 -7.0957 30.9551C-8.80597 29.3753 -10.4733 26.7681 -11.0928 24.7227C-11.3011 24.0346 -11.4399 23.0108 -11.4844 21.9502C-11.5288 20.8905 -11.4771 19.8439 -11.3271 19.1123C-11.0231 17.6293 -10.5208 16.4356 -9.64453 15.2715C-8.76031 14.0968 -7.48011 12.9328 -5.58691 11.5332C-5.04791 11.1347 -4.51111 10.7195 -4.0791 10.3711C-3.6628 10.0354 -3.30515 9.73052 -3.15918 9.56641C-1.79826 8.03576 -1.14735 6.38981 -0.853516 3.87988C-0.585635 1.59131 -0.201915 -0.118973 0.397461 -1.54004C0.993414 -2.95294 1.81192 -4.10202 2.97949 -5.25488C4.97948 -7.22964 7.65304 -8.43797 10.8496 -8.78027C16.0172 -9.33362 21.6159 -6.57173 24.748 -1.87402C26.8195 1.23285 28.1029 4.80108 30.3613 13.9189C30.7138 15.342 30.9001 16.0895 31.0068 16.4697C31.0543 16.6387 31.1011 16.7949 31.1592 16.8994C31.1766 16.9308 31.2094 16.9849 31.2627 17.0371C31.3188 17.092 31.4204 17.1672 31.5684 17.1846C31.7177 17.202 31.8342 17.1512 31.8975 17.1133C31.9262 17.096 31.9505 17.0778 31.9688 17.0625L32.0049 17.0293C32.0721 16.9628 32.105 16.8934 32.1182 16.8623C32.1337 16.8256 32.1425 16.7931 32.1475 16.7725C32.1574 16.7314 32.1615 16.6934 32.1641 16.668C32.1693 16.6146 32.1716 16.5539 32.1719 16.4951C32.1725 16.3743 32.1669 16.2121 32.1572 16.0195C32.1378 15.6317 32.0994 15.0914 32.0459 14.4512C31.9389 13.1694 31.7718 11.47 31.5771 9.74609C31.128 5.76885 30.9778 1.3229 31.2148 -0.536133C31.5285 -2.9966 32.4005 -5.66023 33.4375 -7.37695C35.6155 -10.9819 39.0632 -13.5764 42.665 -14.3691C43.1331 -14.4721 44.0219 -14.5159 44.9521 -14.4941Z" stroke="white" stroke-opacity="0.36" style="mix-blend-mode:soft-light"/>
    </g>
    <defs>
        <clipPath id="clip0_467_727">
            <rect width="86" height="83" fill="white"/>
        </clipPath>
    </defs>
</svg>