<svg width="343" height="210" viewBox="0 0 343 210" fill="none" xmlns="http://www.w3.org/2000/svg">
    <g clip-path="url(#clip0_142_157)">
        <path fill-rule="evenodd" clip-rule="evenodd" d="M220.981 -69.4358C206.192 -66.1768 192.181 -55.5667 183.358 -40.9471C179.103 -33.8944 175.597 -23.1106 174.333 -13.1881C173.368 -5.60706 173.982 12.1275 175.755 27.8451C177.286 41.4177 178.384 54.589 178.016 54.9534C177.725 55.2406 177.626 54.8865 174.837 43.6136C165.939 7.65065 160.819 -6.73755 152.445 -19.3121C139.734 -38.3979 116.987 -49.6926 95.8279 -47.4238C82.8483 -46.0323 71.8805 -41.1033 63.6422 -32.9595C54.1297 -23.5561 50.0972 -13.9838 47.9651 4.2524C46.8411 13.8649 44.3925 19.9438 39.3631 25.6064C38.4747 26.6064 34.3052 29.9726 30.0975 33.0875C15.056 44.2206 9.21921 51.9836 6.72194 64.1783C5.45024 70.3872 5.91161 81.4038 7.68934 87.2804C10.2401 95.7129 17.0133 106.295 23.9898 112.746C38.8624 126.499 60.0102 133.833 78.6454 131.701C89.8311 130.421 106.157 125.152 128.708 115.544C149.294 106.773 160.923 102.226 161.445 102.741C161.824 103.116 151.796 113.149 146.132 118.064C143.163 120.641 138.083 124.918 134.843 127.57C110.117 147.809 96.1498 163.391 86.3659 181.649C71.8702 208.702 64.3961 247.126 69.8476 266.572C71.4035 272.123 73.9527 276.531 77.7217 280.189C83.1349 285.442 90.7985 288.781 97.9207 288.99C103.626 289.157 105.735 287.288 106.594 281.305C107.207 277.03 106.669 271.784 104.455 260.467C97.1006 222.86 98.8513 199.947 110.901 176.121C118.115 161.855 126.258 151.701 142.162 137.14C154.609 125.743 162.578 118.045 167.528 112.636C169.663 110.303 171.408 108.556 171.407 108.754C171.405 109.451 168.978 118.061 165.822 128.571C158.61 152.582 156.551 163.918 156.532 179.708C156.515 193.388 158.36 203.279 162.865 213.671C171.026 232.499 185.544 246.294 203.426 252.213C213.975 255.704 228.218 255.529 237.474 251.794C246.507 248.148 252.259 242.928 261.573 229.924C267.609 221.496 270.392 218.509 274.657 215.881C279.088 213.151 282.171 212.084 290.922 210.249C305.278 207.24 312.364 203.78 320.3 195.903C334.544 181.765 338.642 159.125 330.218 141.102C323.939 127.667 309.75 115.401 291.659 107.768C279.313 102.559 265.359 99.3557 237.423 95.3161C215.005 92.0745 207.238 90.8155 207.238 90.4225C207.238 89.9465 217.715 89.5598 239.632 89.2265C274.385 88.6976 288.336 86.5017 302.978 79.2545C311.719 74.9281 318.806 69.4183 324.195 62.7596C333.67 51.053 338.065 38.1534 336.782 25.8185C336.109 19.3548 335.186 16.1438 332.383 10.5099C330.364 6.45127 329.143 4.74633 325.684 1.15352C320.453 -4.28057 315.464 -7.62835 304.341 -13.1658C293.76 -18.4339 288.879 -21.5401 284.028 -26.0941C279.368 -30.4685 277.134 -33.3287 272.538 -40.8088C267.591 -48.8585 264.863 -52.3916 260.118 -56.8951C253.679 -63.0061 246.835 -67.0972 239.878 -68.9938C235.79 -70.1082 225.16 -70.3571 220.981 -69.4358Z" fill="url(#paint0_linear_142_157)" fill-opacity="0.16" style="mix-blend-mode:soft-light"/>
        <path d="M230.48 -70.6924C234.179 -70.6058 237.932 -70.2641 240.065 -69.6826L240.73 -69.4951C247.594 -67.4868 254.309 -63.3937 260.61 -57.4131C265.416 -52.8526 268.181 -49.2639 273.146 -41.1826C277.721 -33.7382 279.916 -30.9334 284.517 -26.6152C289.292 -22.1322 294.1 -19.0629 304.659 -13.8057C315.814 -8.25221 320.887 -4.86059 326.199 0.658203C329.703 4.29793 330.968 6.06175 333.022 10.1914C335.865 15.9044 336.811 19.1986 337.492 25.7441C338.799 38.3062 334.316 51.389 324.75 63.209C319.288 69.958 312.115 75.5288 303.295 79.8945C288.499 87.2177 274.408 89.4114 239.643 89.9404C228.685 90.1071 220.593 90.2868 215.242 90.4844C213.749 90.5395 212.472 90.5966 211.408 90.6543C212.164 90.7855 213.037 90.9335 214.038 91.0957C218.775 91.8637 226.316 92.9886 237.525 94.6094C265.47 98.6504 279.502 101.864 291.937 107.11C310.137 114.789 324.489 127.159 330.865 140.8C339.418 159.099 335.259 182.062 320.803 196.41C316.792 200.391 312.975 203.277 308.332 205.544C303.698 207.807 298.273 209.438 291.068 210.948C282.349 212.776 279.359 213.823 275.031 216.489C270.896 219.037 268.181 221.924 262.153 230.34C252.807 243.39 246.958 248.737 237.741 252.456C228.311 256.262 213.891 256.429 203.201 252.891C185.108 246.902 170.443 232.951 162.209 213.955C157.8 203.784 155.919 194.09 155.821 180.986L155.817 179.708C155.837 163.82 157.917 152.409 165.138 128.366C166.715 123.114 168.11 118.338 169.11 114.789C169.557 113.205 169.921 111.868 170.19 110.844C169.58 111.473 168.845 112.254 168.055 113.118C163.082 118.552 155.092 126.269 142.645 137.666C126.783 152.188 118.703 162.276 111.538 176.443C99.5857 200.077 97.819 222.813 105.156 260.33C107.368 271.636 107.934 276.995 107.301 281.406C106.866 284.436 106.095 286.618 104.549 287.988C102.992 289.368 100.805 289.789 97.8994 289.704C90.5877 289.49 82.7576 286.071 77.2246 280.701C73.3564 276.947 70.7467 272.425 69.1602 266.765C66.3897 256.882 66.9192 242.284 69.9258 226.827C72.9365 211.349 78.4501 194.91 85.7363 181.312C95.5819 162.938 109.627 147.287 134.391 127.017C137.625 124.369 142.7 120.096 145.664 117.524L146.767 116.552C149.444 114.16 152.784 110.963 155.55 108.195C157.13 106.614 158.517 105.18 159.481 104.121C159.585 104.008 159.68 103.897 159.772 103.793C159.604 103.846 159.423 103.905 159.229 103.969C157.762 104.453 155.631 105.242 152.861 106.325C147.326 108.49 139.279 111.817 128.988 116.201C106.43 125.812 90.0226 131.119 78.7266 132.411C59.8667 134.569 38.5164 127.152 23.5049 113.271C16.4427 106.74 9.59634 96.051 7.00586 87.4873C6.09248 84.468 5.52844 80.1777 5.34863 75.8838C5.16878 71.5887 5.37047 67.2185 6.02246 64.0352C7.28937 57.8485 9.41137 52.758 13.1348 47.8057C16.8469 42.8684 22.1301 38.0965 29.6729 32.5137C31.7693 30.9617 33.8554 29.3472 35.5264 27.998C37.2198 26.6308 38.4324 25.5784 38.8291 25.1318C43.7372 19.6057 46.1442 13.6771 47.2559 4.16992C48.3257 -4.98057 49.8774 -12.0078 52.3779 -17.9434C54.8833 -23.8903 58.3273 -28.7106 63.1396 -33.4678C71.5075 -41.7397 82.6331 -46.7273 95.752 -48.1338C117.201 -50.4334 140.195 -38.9938 153.039 -19.708C161.49 -7.01844 166.634 7.48245 175.53 43.4424C176.23 46.2701 176.759 48.407 177.164 50.0176C177.089 48.9513 176.997 47.7401 176.886 46.4121C176.466 41.3851 175.81 34.7053 175.045 27.9248C173.271 12.1975 172.648 -5.60798 173.625 -13.2783L173.751 -14.2188C175.12 -23.9557 178.566 -34.3861 182.747 -41.3164C191.656 -56.0799 205.822 -66.8271 220.827 -70.1338V-70.1328C223.006 -70.6131 226.781 -70.779 230.48 -70.6924Z" stroke="white" stroke-opacity="0.56" style="mix-blend-mode:soft-light" stroke-width="1.42857"/>
    </g>
    <defs>
        <linearGradient id="paint0_linear_142_157" x1="171.5" y1="-70" x2="171.5" y2="289" gradientUnits="userSpaceOnUse">
            <stop stop-color="white"/>
            <stop offset="1" stop-color="white" stop-opacity="0.48"/>
        </linearGradient>
        <clipPath id="clip0_142_157">
            <rect width="343" height="210" fill="white"/>
        </clipPath>
    </defs>
</svg>
