<svg width="160" height="86" viewBox="0 0 160 86" fill="none" xmlns="http://www.w3.org/2000/svg">
    <g clip-path="url(#clip0_136_144)">
        <path d="M139.952 5.50586C140.883 5.52763 141.765 5.61304 142.222 5.7373C143.891 6.19196 145.558 7.17955 147.146 8.68457C148.308 9.78611 148.973 10.6432 150.215 12.6611C151.397 14.582 151.99 15.346 153.215 16.4941C154.499 17.6981 155.789 18.5115 158.489 19.8545C161.289 21.2469 162.498 22.0647 163.769 23.3828C164.614 24.2606 164.893 24.652 165.381 25.6309C166.065 27.0035 166.283 27.7592 166.447 29.3398C166.756 32.3072 165.702 35.449 163.362 38.3369C162.046 39.9615 160.307 41.3156 158.145 42.3848C154.536 44.1687 151.094 44.7274 142.283 44.8613C139.502 44.9036 137.442 44.9487 136.076 44.999C135.395 45.0242 134.879 45.0507 134.531 45.0791C134.36 45.0931 134.216 45.1087 134.109 45.127C134.06 45.1354 133.996 45.1492 133.935 45.1709C133.907 45.1807 133.847 45.2022 133.786 45.2461C133.74 45.2791 133.569 45.4134 133.569 45.6641C133.569 45.8785 133.698 46.0067 133.739 46.0439C133.791 46.091 133.842 46.119 133.867 46.1318C133.922 46.1595 133.979 46.178 134.02 46.1904C134.107 46.2172 134.225 46.2454 134.365 46.2744C134.65 46.3335 135.084 46.4092 135.687 46.5068C136.895 46.7025 138.814 46.9886 141.658 47.3994C148.741 48.4224 152.228 49.2276 155.299 50.5215C159.814 52.4242 163.3 55.4616 164.826 58.7227C166.873 63.0975 165.877 68.6101 162.41 72.0469C161.433 73.0156 160.523 73.6981 159.426 74.2334C158.322 74.7718 157.007 75.1714 155.204 75.5488C152.961 76.0184 152.114 76.3037 150.917 77.04C149.745 77.7614 148.99 78.5894 147.452 80.7344C145.112 83.9979 143.72 85.2329 141.556 86.1055C139.329 87.003 135.837 87.0526 133.259 86.2002C128.869 84.7488 125.288 81.3608 123.268 76.7061C122.157 74.1465 121.697 71.7096 121.701 68.2969C121.706 64.3628 122.215 61.5418 124.038 55.4785C124.439 54.1446 124.794 52.9296 125.049 52.0254C125.176 51.5737 125.28 51.1969 125.352 50.9209C125.387 50.7835 125.416 50.6674 125.437 50.5781C125.446 50.534 125.454 50.4924 125.461 50.4561C125.465 50.4307 125.475 50.3714 125.476 50.3115C125.476 50.229 125.453 50.0367 125.27 49.9033C125.103 49.7824 124.931 49.8056 124.879 49.8154C124.771 49.8358 124.693 49.8898 124.686 49.8945C124.639 49.9242 124.597 49.9609 124.57 49.9844C124.507 50.0393 124.425 50.1179 124.334 50.209C124.149 50.3941 123.897 50.6581 123.623 50.957C122.383 52.3103 120.376 54.2488 117.218 57.1367C113.152 60.8552 111.041 63.4759 109.175 67.1611C106.049 73.335 105.616 79.2675 107.495 88.8633C108.058 91.7395 108.175 92.9903 108.033 93.9785C107.928 94.7097 107.761 95.0537 107.558 95.2334C107.362 95.4068 107.029 95.5181 106.342 95.498C104.667 95.449 102.839 94.6574 101.549 93.4072C100.662 92.5475 100.058 91.5099 99.6846 90.1797C99.0242 87.8269 99.1358 84.251 99.8916 80.3701C100.645 76.5039 102.024 72.4029 103.836 69.0244C106.276 64.4771 109.765 60.5765 116.014 55.4678C116.839 54.7929 118.132 53.7054 118.89 53.0488C119.621 52.4153 120.625 51.4591 121.434 50.6514C121.838 50.2473 122.198 49.8751 122.453 49.5957C122.579 49.4575 122.687 49.334 122.763 49.2373C122.798 49.1918 122.839 49.1356 122.871 49.0791C122.885 49.0543 122.914 49.0006 122.933 48.9316C122.94 48.9036 123.013 48.6423 122.8 48.4316V48.4307L122.714 48.3623C122.628 48.3073 122.546 48.2912 122.509 48.2852C122.448 48.2752 122.395 48.2763 122.36 48.2783C122.29 48.2825 122.219 48.2957 122.157 48.3096C122.03 48.3383 121.865 48.3875 121.672 48.4512C121.282 48.5799 120.727 48.7849 120.021 49.0605C118.607 49.613 116.558 50.4601 113.944 51.5723C108.226 54.0056 104.14 55.3152 101.379 55.6309C96.8068 56.1533 91.5813 54.3514 87.9043 50.9551C86.194 49.3753 84.5267 46.7681 83.9072 44.7227C83.6989 44.0346 83.5601 43.0108 83.5156 41.9502C83.4712 40.8905 83.5229 39.8439 83.6729 39.1123C83.9769 37.6293 84.4792 36.4356 85.3555 35.2715C86.2397 34.0968 87.5199 32.9328 89.4131 31.5332C89.9521 31.1347 90.4889 30.7195 90.9209 30.3711C91.3372 30.0354 91.6949 29.7305 91.8408 29.5664C93.2017 28.0358 93.8527 26.3898 94.1465 23.8799C94.4144 21.5913 94.7981 19.881 95.3975 18.46C95.9934 17.0471 96.8119 15.898 97.9795 14.7451C99.9795 12.7704 102.653 11.562 105.85 11.2197C111.017 10.6664 116.616 13.4283 119.748 18.126C121.82 21.2328 123.103 24.8011 125.361 33.9189C125.714 35.342 125.9 36.0895 126.007 36.4697C126.054 36.6387 126.101 36.7949 126.159 36.8994C126.177 36.9308 126.209 36.9849 126.263 37.0371C126.319 37.092 126.42 37.1672 126.568 37.1846C126.718 37.202 126.834 37.1512 126.897 37.1133C126.926 37.096 126.95 37.0778 126.969 37.0625L127.005 37.0293C127.072 36.9628 127.105 36.8934 127.118 36.8623C127.134 36.8256 127.142 36.7931 127.147 36.7725C127.157 36.7314 127.162 36.6934 127.164 36.668C127.169 36.6146 127.172 36.5539 127.172 36.4951C127.172 36.3743 127.167 36.2121 127.157 36.0195C127.138 35.6317 127.099 35.0914 127.046 34.4512C126.939 33.1694 126.772 31.47 126.577 29.7461C126.128 25.7689 125.978 21.3229 126.215 19.4639C126.528 17.0034 127.4 14.3398 128.438 12.623C130.615 9.01815 134.063 6.42364 137.665 5.63086C138.133 5.52786 139.022 5.48412 139.952 5.50586Z" stroke="white" stroke-opacity="0.28" style="mix-blend-mode:soft-light"/>
    </g>
    <defs>
        <clipPath id="clip0_136_144">
            <rect width="160" height="86" rx="12" fill="white"/>
        </clipPath>
    </defs>
</svg>