<svg width="177" height="140" viewBox="0 0 177 140" fill="none" xmlns="http://www.w3.org/2000/svg">
    <g clip-path="url(#clip0_137_171)">
        <path d="M-4.62053 44.8208L-13.3359 53.5438C-23.3018 63.0139 -23.5458 78.706 -14.0832 88.6718C-13.8316 88.9235 -13.5876 89.1675 -13.3359 89.4191L56.6693 160.171C58.4155 161.917 60.154 163.411 62.3957 164.403V78.4544L-4.62053 44.8208Z" fill="white" fill-opacity="0.02"/>
        <path d="M153.321 44.8208L162.044 53.5438C171.758 63.0139 172.253 78.706 162.791 88.6718C162.539 88.9235 162.295 89.1675 162.044 89.4191L91.7866 159.919C90.0405 161.665 88.302 163.16 86.0602 164.159V78.4544L153.321 44.8208Z" fill="white" fill-opacity="0.02"/>
        <path d="M136.379 26.884L92.5348 -16.9594C82.8205 -26.6736 67.1206 -26.9252 57.4063 -17.455C57.1547 -17.2034 56.9107 -17.2034 56.9107 -16.9594L12.8152 26.884L74.3491 57.5286L136.379 26.884Z" fill="white" fill-opacity="0.02"/>
    </g>
    <defs>
        <clipPath id="clip0_137_171">
            <rect width="177" height="140" fill="white"/>
        </clipPath>
    </defs>
</svg>
