<svg width="171" height="140" viewBox="0 0 171 140" fill="none" xmlns="http://www.w3.org/2000/svg">
    <g clip-path="url(#clip0_137_135)">
        <path d="M60.9899 195L-44 134.5V13.5L60.9899 -47L166 13.5V134.5L60.9899 195ZM-36.395 130.127L60.9899 186.253L158.395 130.127V17.8937L60.9899 -38.2328L-36.395 17.8735V130.127Z" fill="white" fill-opacity="0.02"/>
        <path d="M100.904 145.069H86.5051L69.267 129.276V121.177L87.1135 104.169V77.2398L110.436 62.0541L137.002 82.0993L100.904 145.069Z" fill="white" fill-opacity="0.02"/>
        <path d="M41.2737 102.549L43.9101 77.2397L35.1897 54.5623H86.7011L78.1834 77.2397L80.6171 102.549H41.2737Z" fill="white" fill-opacity="0.02"/>
        <path d="M53.0433 129.276L35.8053 145.272H21.2036L-15.0977 82.0994L11.672 62.2567L35.1969 77.24V104.169L53.0433 121.177V129.276Z" fill="white" fill-opacity="0.02"/>
        <path d="M20.9941 7.78932H100.695L110.226 48.2846H11.6653L20.9941 7.78932Z" fill="white" fill-opacity="0.02"/>
    </g>
    <defs>
        <clipPath id="clip0_137_135">
            <rect width="171" height="140" fill="white"/>
        </clipPath>
    </defs>
</svg>