<svg width="349" height="192" viewBox="0 0 349 192" fill="none" xmlns="http://www.w3.org/2000/svg">
    <g clip-path="url(#clip0_140_367)">
        <path d="M233.48 -59.6924C237.179 -59.6058 240.932 -59.2641 243.065 -58.6826L243.73 -58.4951C250.594 -56.4868 257.309 -52.3937 263.61 -46.4131C268.416 -41.8526 271.181 -38.2639 276.146 -30.1826C280.721 -22.7382 282.916 -19.9334 287.517 -15.6152C292.292 -11.1322 297.1 -8.06286 307.659 -2.80566C318.814 2.74779 323.887 6.13941 329.199 11.6582C332.703 15.2979 333.968 17.0617 336.022 21.1914C338.865 26.9044 339.811 30.1986 340.492 36.7441C341.799 49.3062 337.316 62.389 327.75 74.209C322.288 80.958 315.115 86.5288 306.295 90.8945C291.499 98.2177 277.408 100.411 242.643 100.94C231.685 101.107 223.593 101.287 218.242 101.484C216.749 101.54 215.472 101.597 214.408 101.654C215.164 101.786 216.037 101.933 217.038 102.096C221.775 102.864 229.316 103.989 240.525 105.609C268.47 109.65 282.502 112.864 294.937 118.11C313.137 125.789 327.489 138.159 333.865 151.8C342.418 170.099 338.259 193.062 323.803 207.41C319.792 211.391 315.975 214.277 311.332 216.544C306.698 218.807 301.273 220.438 294.068 221.948C285.349 223.776 282.359 224.823 278.031 227.489C273.896 230.037 271.181 232.924 265.153 241.34C255.807 254.39 249.958 259.737 240.741 263.456C231.311 267.262 216.891 267.429 206.201 263.891C188.108 257.902 173.443 243.951 165.209 224.955C160.8 214.784 158.919 205.09 158.821 191.986L158.817 190.708C158.837 174.82 160.917 163.409 168.138 139.366C169.715 134.114 171.11 129.338 172.11 125.789C172.557 124.205 172.921 122.868 173.19 121.844C172.58 122.473 171.845 123.254 171.055 124.118C166.082 129.552 158.092 137.269 145.645 148.666C129.783 163.188 121.703 173.276 114.538 187.443C102.586 211.077 100.819 233.813 108.156 271.33C110.368 282.636 110.934 287.995 110.301 292.406C109.866 295.436 109.095 297.618 107.549 298.988C105.992 300.368 103.805 300.789 100.899 300.704C93.5877 300.49 85.7576 297.071 80.2246 291.701C76.3564 287.947 73.7467 283.425 72.1602 277.765C69.3897 267.882 69.9192 253.284 72.9258 237.827C75.9365 222.349 81.4501 205.91 88.7363 192.312C98.5819 173.938 112.627 158.287 137.391 138.017C140.625 135.369 145.7 131.096 148.664 128.524L149.767 127.552C152.444 125.16 155.784 121.963 158.55 119.195C160.13 117.614 161.517 116.18 162.481 115.121C162.585 115.008 162.68 114.897 162.772 114.793C162.604 114.846 162.423 114.905 162.229 114.969C160.762 115.453 158.631 116.242 155.861 117.325C150.326 119.49 142.279 122.817 131.988 127.201C109.43 136.812 93.0226 142.119 81.7266 143.411C62.8667 145.569 41.5164 138.152 26.5049 124.271C19.4427 117.74 12.5963 107.051 10.0059 98.4873C9.09248 95.468 8.52844 91.1777 8.34863 86.8838C8.16878 82.5887 8.37047 78.2185 9.02246 75.0352C10.2894 68.8485 12.4114 63.758 16.1348 58.8057C19.8469 53.8684 25.1301 49.0965 32.6729 43.5137C34.7693 41.9617 36.8554 40.3472 38.5264 38.998C40.2198 37.6308 41.4324 36.5784 41.8291 36.1318C46.7372 30.6057 49.1442 24.6771 50.2559 15.1699C51.3257 6.01943 52.8774 -1.00784 55.3779 -6.94336C57.8833 -12.8903 61.3273 -17.7106 66.1396 -22.4678C74.5075 -30.7397 85.6331 -35.7273 98.752 -37.1338C120.201 -39.4334 143.195 -27.9938 156.039 -8.70801C164.49 3.98156 169.634 18.4825 178.53 54.4424C179.23 57.2701 179.759 59.407 180.164 61.0176C180.089 59.9513 179.997 58.7401 179.886 57.4121C179.466 52.3851 178.81 45.7053 178.045 38.9248C176.271 23.1975 175.648 5.39202 176.625 -2.27832L176.751 -3.21875C178.12 -12.9557 181.566 -23.3861 185.747 -30.3164C194.656 -45.0799 208.822 -55.8271 223.827 -59.1338V-59.1328C226.006 -59.6131 229.781 -59.779 233.48 -59.6924Z" fill="url(#paint0_linear_140_367)" fill-opacity="0.16" style="mix-blend-mode:soft-light"/>
        <path d="M233.48 -59.6924C237.179 -59.6058 240.932 -59.2641 243.065 -58.6826L243.73 -58.4951C250.594 -56.4868 257.309 -52.3937 263.61 -46.4131C268.416 -41.8526 271.181 -38.2639 276.146 -30.1826C280.721 -22.7382 282.916 -19.9334 287.517 -15.6152C292.292 -11.1322 297.1 -8.06286 307.659 -2.80566C318.814 2.74779 323.887 6.13941 329.199 11.6582C332.703 15.2979 333.968 17.0617 336.022 21.1914C338.865 26.9044 339.811 30.1986 340.492 36.7441C341.799 49.3062 337.316 62.389 327.75 74.209C322.288 80.958 315.115 86.5288 306.295 90.8945C291.499 98.2177 277.408 100.411 242.643 100.94C231.685 101.107 223.593 101.287 218.242 101.484C216.749 101.54 215.472 101.597 214.408 101.654C215.164 101.786 216.037 101.933 217.038 102.096C221.775 102.864 229.316 103.989 240.525 105.609C268.47 109.65 282.502 112.864 294.937 118.11C313.137 125.789 327.489 138.159 333.865 151.8C342.418 170.099 338.259 193.062 323.803 207.41C319.792 211.391 315.975 214.277 311.332 216.544C306.698 218.807 301.273 220.438 294.068 221.948C285.349 223.776 282.359 224.823 278.031 227.489C273.896 230.037 271.181 232.924 265.153 241.34C255.807 254.39 249.958 259.737 240.741 263.456C231.311 267.262 216.891 267.429 206.201 263.891C188.108 257.902 173.443 243.951 165.209 224.955C160.8 214.784 158.919 205.09 158.821 191.986L158.817 190.708C158.837 174.82 160.917 163.409 168.138 139.366C169.715 134.114 171.11 129.338 172.11 125.789C172.557 124.205 172.921 122.868 173.19 121.844C172.58 122.473 171.845 123.254 171.055 124.118C166.082 129.552 158.092 137.269 145.645 148.666C129.783 163.188 121.703 173.276 114.538 187.443C102.586 211.077 100.819 233.813 108.156 271.33C110.368 282.636 110.934 287.995 110.301 292.406C109.866 295.436 109.095 297.618 107.549 298.988C105.992 300.368 103.805 300.789 100.899 300.704C93.5877 300.49 85.7576 297.071 80.2246 291.701C76.3564 287.947 73.7467 283.425 72.1602 277.765C69.3897 267.882 69.9192 253.284 72.9258 237.827C75.9365 222.349 81.4501 205.91 88.7363 192.312C98.5819 173.938 112.627 158.287 137.391 138.017C140.625 135.369 145.7 131.096 148.664 128.524L149.767 127.552C152.444 125.16 155.784 121.963 158.55 119.195C160.13 117.614 161.517 116.18 162.481 115.121C162.585 115.008 162.68 114.897 162.772 114.793C162.604 114.846 162.423 114.905 162.229 114.969C160.762 115.453 158.631 116.242 155.861 117.325C150.326 119.49 142.279 122.817 131.988 127.201C109.43 136.812 93.0226 142.119 81.7266 143.411C62.8667 145.569 41.5164 138.152 26.5049 124.271C19.4427 117.74 12.5963 107.051 10.0059 98.4873C9.09248 95.468 8.52844 91.1777 8.34863 86.8838C8.16878 82.5887 8.37047 78.2185 9.02246 75.0352C10.2894 68.8485 12.4114 63.758 16.1348 58.8057C19.8469 53.8684 25.1301 49.0965 32.6729 43.5137C34.7693 41.9617 36.8554 40.3472 38.5264 38.998C40.2198 37.6308 41.4324 36.5784 41.8291 36.1318C46.7372 30.6057 49.1442 24.6771 50.2559 15.1699C51.3257 6.01943 52.8774 -1.00784 55.3779 -6.94336C57.8833 -12.8903 61.3273 -17.7106 66.1396 -22.4678C74.5075 -30.7397 85.6331 -35.7273 98.752 -37.1338C120.201 -39.4334 143.195 -27.9938 156.039 -8.70801C164.49 3.98156 169.634 18.4825 178.53 54.4424C179.23 57.2701 179.759 59.407 180.164 61.0176C180.089 59.9513 179.997 58.7401 179.886 57.4121C179.466 52.3851 178.81 45.7053 178.045 38.9248C176.271 23.1975 175.648 5.39202 176.625 -2.27832L176.751 -3.21875C178.12 -12.9557 181.566 -23.3861 185.747 -30.3164C194.656 -45.0799 208.822 -55.8271 223.827 -59.1338V-59.1328C226.006 -59.6131 229.781 -59.779 233.48 -59.6924Z" stroke="white" style="mix-blend-mode:soft-light" stroke-width="1.42857"/>
    </g>
    <defs>
        <linearGradient id="paint0_linear_140_367" x1="174.5" y1="-59" x2="174.5" y2="300" gradientUnits="userSpaceOnUse">
            <stop stop-color="white"/>
            <stop offset="1" stop-color="white" stop-opacity="0.48"/>
        </linearGradient>
        <clipPath id="clip0_140_367">
            <rect width="349" height="192" rx="16" fill="white"/>
        </clipPath>
    </defs>
</svg>