<svg width="181" height="280" viewBox="0 0 181 280" fill="none" xmlns="http://www.w3.org/2000/svg">
    <g clip-path="url(#clip0_125_266)">
        <path d="M102.891 -28.4854C105.383 -28.427 107.822 -28.1971 109.143 -27.8369C113.755 -26.5793 118.316 -23.859 122.627 -19.7666C125.796 -16.7583 127.616 -14.4059 130.95 -8.97949C134.076 -3.89154 135.614 -1.91632 138.81 1.08398C142.145 4.216 145.5 6.34449 152.676 9.91797C160.18 13.6546 163.499 15.8902 166.981 19.5088C169.29 21.9076 170.086 23.0208 171.428 25.7178C173.297 29.4759 173.905 31.5917 174.354 35.9092C175.207 44.0995 172.293 52.7033 165.945 60.5479C162.35 64.9916 157.613 68.6783 151.754 71.5791C141.953 76.4313 132.609 77.9195 109.1 78.2773C101.683 78.3902 96.1985 78.5124 92.5664 78.6465C90.7517 78.7135 89.3924 78.7831 88.4844 78.8574C88.033 78.8944 87.6801 78.9333 87.4346 78.9756C87.3156 78.9961 87.1979 79.0215 87.1016 79.0557C87.0566 79.0716 86.9849 79.1003 86.915 79.1504C86.8671 79.1848 86.7275 79.2967 86.6934 79.4961L86.6855 79.5869L86.6914 79.665C86.7172 79.8381 86.8227 79.9455 86.8643 79.9834C86.9226 80.0365 86.9839 80.0703 87.0225 80.0898C87.1035 80.1309 87.2003 80.1644 87.2949 80.1934C87.491 80.2534 87.7737 80.321 88.1416 80.3975C88.8828 80.5514 90.0236 80.7532 91.6299 81.0137C94.845 81.535 99.9557 82.2966 107.541 83.3936C126.439 86.127 135.829 88.2888 144.121 91.7881C156.288 96.9225 165.776 105.153 169.958 114.103C175.568 126.109 172.838 141.207 163.347 150.63C160.691 153.266 158.193 155.148 155.168 156.626C152.136 158.107 148.554 159.192 143.715 160.206C137.771 161.452 135.619 162.19 132.548 164.082C129.758 165.801 127.886 167.748 124.292 172.692L123.549 173.722C117.27 182.491 113.445 185.935 107.46 188.352C101.319 190.831 91.8028 190.955 84.7627 188.625C72.81 184.668 63.0873 175.439 57.6152 162.812C54.5988 155.853 53.3589 149.228 53.3701 140.023C53.3825 130.067 54.5956 122.747 58.7627 108.498L59.6367 105.553C60.7053 101.994 61.6503 98.7554 62.3291 96.3467C62.6684 95.1427 62.942 94.1438 63.1309 93.415C63.2251 93.0513 63.2987 92.7513 63.3496 92.5254C63.375 92.4127 63.3957 92.3139 63.4102 92.2334C63.4226 92.1641 63.4363 92.0742 63.4365 91.9961C63.4366 91.9113 63.4135 91.7167 63.2285 91.582C63.061 91.4602 62.8878 91.4837 62.832 91.4941C62.7178 91.5156 62.6317 91.5731 62.6133 91.585C62.5451 91.6289 62.4699 91.691 62.4014 91.751C62.2552 91.8789 62.0524 92.0734 61.8125 92.3135C61.3299 92.7965 60.6685 93.4925 59.9434 94.2852C56.6099 97.9285 51.2313 103.126 42.8086 110.84C32.0155 120.724 26.4612 127.644 21.5439 137.369C13.3219 153.631 12.1482 169.264 17.1377 194.782C18.6371 202.45 18.9825 205.921 18.5811 208.72C18.2944 210.718 17.8123 211.894 17.0391 212.579C16.2731 213.258 15.1139 213.549 13.2207 213.493C8.53365 213.356 3.46414 211.152 -0.115234 207.678C-2.59636 205.269 -4.27907 202.364 -5.31055 198.684C-7.12377 192.214 -6.79864 182.512 -4.77441 172.104C-2.75298 161.709 0.949169 150.678 5.82715 141.572C12.4051 129.294 21.8028 118.796 38.5098 105.118C40.7053 103.321 44.1467 100.422 46.1602 98.6748C48.0892 97.0007 50.7533 94.4613 52.9014 92.3115C53.9755 91.2366 54.9254 90.2539 55.5928 89.5215C55.9251 89.1568 56.1953 88.8463 56.376 88.6143C56.464 88.5012 56.5437 88.3908 56.5986 88.2939C56.6241 88.2491 56.6608 88.1785 56.6826 88.0967C56.6933 88.0566 56.7654 87.7861 56.5479 87.5703L56.5469 87.5693C56.4272 87.4513 56.2868 87.4199 56.2217 87.4092C56.145 87.3966 56.0711 87.3968 56.0117 87.4004C55.8913 87.4076 55.7513 87.4325 55.6035 87.4658C55.3033 87.5336 54.8938 87.6547 54.3867 87.8223C53.3686 88.1588 51.9068 88.7008 50.0283 89.4355C46.2683 90.9063 40.812 93.1619 33.8447 96.1309C18.5889 102.632 7.59791 106.174 0.105469 107.031C-12.3484 108.456 -26.5187 103.549 -36.4863 94.3301C-41.1474 90.0191 -45.6795 82.9314 -47.3779 77.3154C-47.9623 75.3834 -48.338 72.5714 -48.458 69.7051C-48.578 66.8395 -48.4405 63.969 -48.0215 61.9229C-47.1893 57.8582 -45.8066 54.5515 -43.3857 51.3311C-40.957 48.1001 -37.4687 44.9361 -32.3945 41.1797C-30.9657 40.1217 -29.5427 39.0211 -28.4004 38.0986C-27.2738 37.1888 -26.3817 36.4217 -26.0479 36.0459C-22.5598 32.1177 -20.8737 27.898 -20.1045 21.3184C-19.3857 15.1692 -18.3495 10.5153 -16.708 6.61816C-15.0699 2.72906 -12.8191 -0.428657 -9.63965 -3.57227C-4.15521 -8.99495 3.15667 -12.2902 11.8428 -13.2217C25.9597 -14.7356 41.18 -7.19176 49.6885 5.58691C55.302 14.0178 58.7508 23.6782 64.7725 48.0225C65.7147 51.832 66.2062 53.8105 66.4863 54.8096C66.6205 55.2882 66.7206 55.6013 66.8184 55.7773C66.8457 55.8266 66.8876 55.8926 66.9492 55.9531C67.0137 56.0165 67.1241 56.096 67.2803 56.1143C67.4372 56.1326 67.5602 56.0795 67.6309 56.0371C67.6956 55.9983 67.7421 55.953 67.7607 55.9346L67.7617 55.9336C67.8312 55.8647 67.8656 55.7919 67.8809 55.7559C67.8984 55.7143 67.9092 55.6757 67.916 55.6475C67.9296 55.5911 67.9374 55.5323 67.9424 55.4814C67.9526 55.3774 67.9572 55.2466 67.958 55.0986C67.9596 54.7994 67.9465 54.3839 67.9209 53.874C67.8696 52.8519 67.7673 51.4208 67.625 49.7148C67.3403 46.3013 66.8944 41.7712 66.376 37.1738C65.177 26.5418 64.7677 14.5865 65.4131 9.51758C66.2611 2.85596 68.6162 -4.37339 71.4531 -9.07617C77.3627 -18.8711 86.7369 -25.9573 96.5938 -28.1299C97.9454 -28.4279 100.399 -28.5436 102.891 -28.4854Z" stroke="white" stroke-opacity="0.36" style="mix-blend-mode:soft-light"/>
    </g>
    <defs>
        <clipPath id="clip0_125_266">
            <rect width="181" height="280" fill="white"/>
        </clipPath>
    </defs>
</svg>