<svg width="48" height="48" viewBox="0 0 48 48" fill="none" xmlns="http://www.w3.org/2000/svg">
    <g clip-path="url(#clip0_693_2385)">
        <path d="M36 0H12C5.37258 0 0 5.37258 0 12V36C0 42.6274 5.37258 48 12 48H36C42.6274 48 48 42.6274 48 36V12C48 5.37258 42.6274 0 36 0Z" fill="#102B49"/>
        <path fill-rule="evenodd" clip-rule="evenodd" d="M27.5828 11.9815C26.5717 12.204 25.6138 12.9285 25.0107 13.9268C24.7198 14.4084 24.4801 15.1448 24.3937 15.8224C24.3277 16.34 24.3697 17.551 24.4909 18.6243C24.5956 19.5511 24.6707 20.4505 24.6455 20.4754C24.6256 20.495 24.6188 20.4708 24.4281 19.7011C23.8199 17.2453 23.4698 16.2628 22.8973 15.4042C22.0284 14.1009 20.4733 13.3297 19.0268 13.4846C18.1394 13.5796 17.3896 13.9162 16.8264 14.4723C16.1761 15.1144 15.9004 15.768 15.7547 17.0133C15.6778 17.6697 15.5104 18.0848 15.1666 18.4714C15.1059 18.5397 14.8208 18.7696 14.5331 18.9823C13.5048 19.7425 13.1058 20.2726 12.9351 21.1053C12.8482 21.5293 12.8797 22.2816 13.0012 22.6828C13.1756 23.2587 13.6387 23.9812 14.1156 24.4218C15.1324 25.3609 16.5781 25.8617 17.8521 25.7161C18.6168 25.6287 19.7329 25.2689 21.2746 24.6128C22.6819 24.0139 23.4769 23.7034 23.5127 23.7386C23.5385 23.7642 22.853 24.4493 22.4658 24.7849C22.2628 24.9609 21.9155 25.2529 21.694 25.434C20.0036 26.8161 19.0488 27.88 18.3799 29.1268C17.3889 30.9741 16.8779 33.5979 17.2506 34.9257C17.357 35.3048 17.5313 35.6058 17.7889 35.8556C18.159 36.2143 18.6829 36.4423 19.1698 36.4566C19.5599 36.468 19.7041 36.3403 19.7628 35.9318C19.8047 35.6398 19.7679 35.2817 19.6166 34.5089C19.1138 31.9409 19.2335 30.3763 20.0572 28.7493C20.5504 27.7752 21.1071 27.0818 22.1944 26.0875C23.0453 25.3093 23.5901 24.7836 23.9285 24.4142C24.0744 24.2549 24.1938 24.1357 24.1937 24.1492C24.1936 24.1967 24.0276 24.7847 23.8119 25.5024C23.3188 27.1419 23.1781 27.916 23.1767 28.9943C23.1756 29.9284 23.3017 30.6038 23.6097 31.3134C24.1676 32.5991 25.1602 33.5411 26.3826 33.9452C27.1038 34.1836 28.0775 34.1717 28.7103 33.9166C29.3279 33.6677 29.7211 33.3112 30.3578 32.4233C30.7705 31.8477 30.9607 31.6438 31.2523 31.4644C31.5552 31.2779 31.766 31.205 32.3642 31.0798C33.3456 30.8743 33.8301 30.638 34.3726 30.1001C35.3464 29.1347 35.6266 27.5888 35.0507 26.3581C34.6214 25.4407 33.6514 24.6031 32.4146 24.0819C31.5706 23.7262 30.6166 23.5074 28.7068 23.2316C27.1742 23.0102 26.6433 22.9242 26.6433 22.8974C26.6433 22.8649 27.3595 22.8385 28.8578 22.8157C31.2337 22.7796 32.1874 22.6297 33.1884 22.1348C33.786 21.8394 34.2705 21.4631 34.6389 21.0084C35.2866 20.2091 35.5871 19.3282 35.4994 18.4859C35.4534 18.0445 35.3903 17.8253 35.1987 17.4406C35.0606 17.1634 34.9771 17.047 34.7407 16.8017C34.3831 16.4306 34.042 16.202 33.2816 15.8239C32.5582 15.4641 32.2246 15.252 31.8929 14.9411C31.5743 14.6424 31.4216 14.4471 31.1074 13.9363C30.7692 13.3866 30.5828 13.1453 30.2584 12.8378C29.8182 12.4205 29.3502 12.1412 28.8746 12.0117C28.5951 11.9356 27.8685 11.9186 27.5828 11.9815Z" fill="url(#paint0_linear_693_2385)"/>
    </g>
    <defs>
        <linearGradient id="paint0_linear_693_2385" x1="24.2" y1="11.943" x2="24.2" y2="36.4572" gradientUnits="userSpaceOnUse">
            <stop stop-color="#3C98FF"/>
            <stop offset="1" stop-color="#197EF0"/>
        </linearGradient>
        <clipPath id="clip0_693_2385">
            <rect width="48" height="48" fill="white"/>
        </clipPath>
    </defs>
</svg>