<svg width="282" height="48" viewBox="0 0 282 48" fill="none" xmlns="http://www.w3.org/2000/svg">
    <g clip-path="url(#clip0_166_139)">
        <path fill-rule="evenodd" clip-rule="evenodd" d="M20.944 -1.58355C19.434 -1.56022 17.8515 -0.799205 16.6949 0.459781C16.1369 1.06714 15.5769 2.05603 15.2532 3.00533C15.0059 3.73061 14.7079 5.48493 14.5638 7.06439C14.4394 8.4283 14.2808 9.74411 14.2375 9.77251C14.2033 9.79489 14.2007 9.7581 14.1559 8.59485C14.0129 4.88379 13.8032 3.36774 13.2392 1.96454C12.3832 -0.165253 10.3898 -1.73116 8.2776 -1.93293C6.98196 -2.05671 5.81139 -1.79265 4.84248 -1.15804C3.72372 -0.425268 3.1367 0.434053 2.56039 2.18254C2.25661 3.10418 1.89478 3.65215 1.28933 4.10744C1.18239 4.18784 0.70726 4.43482 0.233469 4.65634C-1.46016 5.44806 -2.18685 6.09345 -2.67687 7.24118C-2.92639 7.82554 -3.1037 8.91692 -3.0487 9.52982C-2.96981 10.4093 -2.52194 11.5847 -1.97085 12.3583C-0.796026 14.0077 1.12117 15.1525 2.98407 15.317C4.10227 15.4158 5.80298 15.2258 8.19918 14.7346C10.3866 14.2862 11.614 14.0729 11.6546 14.134C11.684 14.1784 10.5023 14.9627 9.84989 15.3318C9.50789 15.5253 8.92546 15.8435 8.55559 16.039C5.73236 17.5308 4.05387 18.781 2.72987 20.3782C0.768201 22.7446 -0.737267 26.3688 -0.597392 28.3883C-0.557493 28.9648 -0.397517 29.4489 -0.103281 29.8839C0.319327 30.5085 1.00034 30.9903 1.69166 31.1537C2.24545 31.2846 2.48918 31.1433 2.69379 30.5728C2.83999 30.1652 2.89328 29.6392 2.90554 28.4832C2.94636 24.6415 3.57982 22.426 5.23746 20.3275C6.22995 19.071 7.23009 18.237 9.07719 17.1258C10.5228 16.2562 11.4564 15.6599 12.0489 15.228C12.3045 15.0417 12.5102 14.9051 12.5061 14.9245C12.4919 14.9929 12.0811 15.79 11.5607 16.759C10.3718 18.9727 9.9419 20.0449 9.62125 21.5956C9.3435 22.939 9.324 23.9475 9.55419 25.0587C9.97117 27.0719 11.1106 28.7182 12.7373 29.6584C13.6971 30.2131 15.0916 30.4817 16.0708 30.3005C17.0266 30.1237 17.6937 29.7264 18.8657 28.636C19.6253 27.9293 19.9574 27.6917 20.4269 27.5192C20.9147 27.3399 21.2374 27.297 22.129 27.2924C23.5917 27.2849 24.3535 27.0872 25.2875 26.4727C26.964 25.3699 27.8211 23.2283 27.3623 21.2889C27.0202 19.8432 25.8822 18.3537 24.2694 17.2408C23.169 16.4814 21.8709 15.8867 19.2243 14.9293C17.1004 14.161 16.3674 13.8815 16.3753 13.8429C16.3849 13.7962 17.4158 13.9684 19.5629 14.3755C22.9675 15.021 24.3742 15.0852 25.9504 14.6672C26.8914 14.4176 27.6947 14.0186 28.3554 13.4727C29.5169 12.513 30.2065 11.3341 30.3302 10.0967C30.3949 9.44833 30.3697 9.11442 30.2096 8.50476C30.0943 8.06558 30.0095 7.8736 29.7443 7.4513C29.3431 6.81255 28.9234 6.38358 27.9489 5.61645C27.022 4.88665 26.608 4.4836 26.2262 3.93893C25.8594 3.41572 25.699 3.08996 25.4011 2.26298C25.0805 1.37302 24.8854 0.971236 24.5129 0.43365C24.0075 -0.295818 23.4216 -0.835021 22.7805 -1.16093C22.4038 -1.35244 21.3707 -1.5902 20.944 -1.58355Z" fill="white" fill-opacity="0.17" style="mix-blend-mode:soft-light"/>
        <path fill-rule="evenodd" clip-rule="evenodd" d="M69.6694 25.125C69.1786 26.0495 69.1115 27.2647 69.489 28.3879C69.6711 28.9297 70.0842 29.6004 70.5523 30.1143C70.9099 30.507 71.8753 31.2745 72.7859 31.8902C73.5723 32.4218 74.3181 32.9581 74.3209 32.9939C74.323 33.0221 74.2998 33.0114 73.5786 32.6496C71.2779 31.4955 70.2874 31.1157 69.247 30.9889C67.6677 30.7964 66.0505 31.483 65.2217 32.6978C64.7133 33.4429 64.4822 34.2419 64.5434 35.0423C64.6142 35.9665 64.9395 36.6102 65.8083 37.5448C66.2662 38.0374 66.4779 38.4403 66.5518 38.9601C66.5649 39.0519 66.556 39.423 66.532 39.7847C66.4463 41.0776 66.5951 41.7346 67.128 42.4159C67.3993 42.7628 68.0026 43.2354 68.3931 43.4069C68.9534 43.6531 69.8167 43.7743 70.4706 43.6984C71.8648 43.5368 73.2009 42.7557 73.9238 41.6797C74.3576 41.0339 74.811 39.9379 75.3141 38.319C75.7734 36.8411 76.0543 36.0246 76.105 36.0204C76.1418 36.0174 76.2227 36.9971 76.2286 37.5165C76.2318 37.7889 76.2302 38.2489 76.2251 38.5388C76.1867 40.7516 76.3844 42.1886 76.9113 43.5265C77.6919 45.5087 79.3887 47.6346 80.6615 48.225C81.0248 48.3936 81.3723 48.4584 81.7347 48.4252C82.2552 48.3775 82.7754 48.1252 83.1058 47.7601C83.3704 47.4677 83.3662 47.2725 83.0883 46.9575C82.8897 46.7324 82.5882 46.5242 81.8905 46.1302C79.5719 44.8207 78.4388 43.6953 77.7191 41.9872C77.2882 40.9645 77.1163 40.0785 77.0594 38.5856C77.0148 37.4172 76.965 36.651 76.901 36.1468C76.8733 35.9294 76.8592 35.7588 76.8697 35.7678C76.9064 35.7993 77.2529 36.3152 77.6672 36.9552C78.6135 38.4172 79.1207 39.0367 79.9548 39.7499C80.6775 40.3678 81.2833 40.7169 82.0349 40.9487C83.3964 41.3688 84.7769 41.2276 85.8917 40.5544C86.5494 40.1573 87.1788 39.4005 87.3962 38.7454C87.6085 38.106 87.5904 37.5682 87.3203 36.4921C87.1453 35.7946 87.1121 35.5135 87.1644 35.1708C87.2187 34.8147 87.3005 34.6045 87.5959 34.0617C88.0804 33.1712 88.2152 32.6426 88.1545 31.8701C88.0456 30.4835 87.0321 29.247 85.7012 28.8771C84.7092 28.6013 83.4244 28.7941 82.2095 29.401C81.3805 29.8152 80.5853 30.4043 79.1191 31.6909C77.9425 32.7234 77.5276 33.0749 77.5069 33.0572C77.4817 33.0357 77.931 32.4675 78.8961 31.3001C80.4265 29.4491 80.9359 28.6165 81.2092 27.5199C81.3723 26.8652 81.3987 26.2441 81.2882 25.6605C81.094 24.6343 80.6089 23.8215 79.8991 23.3326C79.5271 23.0765 79.3159 22.9802 78.8923 22.8735C78.5871 22.7966 78.4422 22.7839 78.0971 22.8037C77.5752 22.8337 77.1745 22.945 76.3829 23.2801C75.6298 23.5988 75.2467 23.7153 74.7884 23.765C74.3481 23.8127 74.0967 23.8011 73.495 23.7054C72.8476 23.6024 72.5384 23.5865 72.0875 23.6329C71.4756 23.6958 70.9524 23.8711 70.5401 24.1514C70.2979 24.3161 69.8081 24.8637 69.6694 25.125Z" fill="white" fill-opacity="0.2" style="mix-blend-mode:soft-light"/>
        <path fill-rule="evenodd" clip-rule="evenodd" d="M122.435 2.84876C122.348 4.85134 123.232 7.00772 124.809 8.63899C125.57 9.42585 126.837 10.2455 128.069 10.7488C129.011 11.1333 131.312 11.6657 133.393 11.9806C135.19 12.2524 136.921 12.5658 136.956 12.6254C136.982 12.6725 136.934 12.673 135.389 12.6411C130.461 12.5395 128.435 12.6983 126.532 13.3355C123.643 14.3027 121.412 16.8211 120.979 19.6038C120.713 21.3107 120.971 22.8824 121.736 24.2159C122.619 25.7557 123.712 26.6009 125.983 27.5016C127.181 27.9764 127.878 28.4988 128.434 29.3367C128.532 29.4847 128.822 30.1336 129.078 30.7787C129.995 33.0848 130.793 34.0982 132.275 34.8375C133.03 35.2139 134.462 35.5345 135.278 35.5097C136.45 35.4741 138.042 34.9729 139.11 34.3034C141.388 32.8762 143.055 30.4258 143.419 27.9705C143.638 26.4967 143.519 24.2284 143.056 21.015C142.634 18.0816 142.447 16.4386 142.532 16.3896C142.593 16.3541 143.539 17.9814 143.977 18.8748C144.207 19.3431 144.583 20.1397 144.813 20.6451C146.568 24.5028 148.093 26.8248 150.105 28.7043C153.086 31.489 157.77 33.7679 160.457 33.741C161.224 33.7334 161.878 33.5594 162.477 33.2037C163.338 32.6927 164.03 31.8282 164.3 30.925C164.517 30.2016 164.349 29.8676 163.609 29.5517C163.081 29.326 162.388 29.2142 160.857 29.1072C155.771 28.7518 152.885 27.7388 150.234 25.3779C148.647 23.9643 147.621 22.5737 146.294 20.0393C145.255 18.0557 144.538 16.772 144.012 15.953C143.785 15.5998 143.62 15.3165 143.646 15.3234C143.735 15.3477 144.759 15.9545 146.002 16.72C148.842 18.4689 150.229 19.1225 152.258 19.669C154.017 20.1424 155.351 20.2473 156.842 20.0295C159.542 19.6349 161.812 18.2544 163.186 16.1728C163.996 14.9447 164.461 13.1181 164.298 11.8065C164.139 10.5262 163.665 9.61118 162.312 7.97283C161.435 6.91093 161.146 6.45226 160.954 5.81671C160.755 5.1563 160.724 4.72543 160.787 3.54368C160.892 1.60516 160.69 0.580258 159.949 -0.705507C158.619 -3.01321 155.849 -4.31688 153.244 -3.86103C151.301 -3.5212 149.238 -2.13021 147.638 -0.0806922C146.545 1.31783 145.655 2.99108 144.179 6.42252C142.995 9.17638 142.567 10.1257 142.516 10.1121C142.455 10.0957 142.764 8.74333 143.472 5.93044C144.594 1.47018 144.79 -0.388635 144.359 -2.50979C144.103 -3.77606 143.637 -4.87169 142.965 -5.78989C141.785 -7.40419 140.277 -8.41034 138.647 -8.6712C137.793 -8.80785 137.349 -8.80059 136.529 -8.63633C135.938 -8.51805 135.677 -8.4207 135.096 -8.10243C134.219 -7.621 133.617 -7.09856 132.524 -5.86763C131.485 -4.69667 130.918 -4.17984 130.167 -3.71665C129.445 -3.27168 129 -3.08476 127.881 -2.75493C126.677 -2.39999 126.129 -2.17302 125.388 -1.72163C124.382 -1.10913 123.621 -0.375224 123.139 0.448705C122.856 0.932829 122.46 2.2829 122.435 2.84876Z" fill="white" fill-opacity="0.16" style="mix-blend-mode:soft-light"/>
        <path fill-rule="evenodd" clip-rule="evenodd" d="M219.249 29.0376C218.269 29.2549 217.34 29.9622 216.755 30.9369C216.473 31.407 216.241 32.126 216.157 32.7875C216.093 33.2929 216.134 34.4752 216.251 35.523C216.353 36.4279 216.426 37.3059 216.401 37.3302C216.382 37.3494 216.375 37.3258 216.191 36.5743C215.601 34.1767 215.262 33.2175 214.706 32.3792C213.864 31.1068 212.356 30.3538 210.954 30.5051C210.094 30.5978 209.367 30.9264 208.821 31.4694C208.19 32.0963 207.923 32.7344 207.781 33.9502C207.707 34.591 207.545 34.9963 207.211 35.3738C207.152 35.4404 206.876 35.6648 206.597 35.8725C205.6 36.6147 205.213 37.1322 205.048 37.9452C204.964 38.3592 204.994 39.0936 205.112 39.4854C205.281 40.0475 205.73 40.753 206.192 41.1831C207.178 42.0999 208.58 42.5889 209.815 42.4468C210.556 42.3614 211.638 42.0102 213.133 41.3696C214.498 40.7849 215.268 40.4817 215.303 40.5161C215.328 40.5411 214.663 41.21 214.288 41.5376C214.091 41.7094 213.755 41.9946 213.54 42.1713C211.901 43.5206 210.975 44.5594 210.327 45.7766C209.366 47.5802 208.871 50.1418 209.232 51.4381C209.335 51.8082 209.504 52.1021 209.754 52.346C210.113 52.6962 210.621 52.9188 211.093 52.9327C211.471 52.9438 211.611 52.8192 211.667 52.4203C211.708 52.1353 211.672 51.7856 211.526 51.0312C211.038 48.524 211.154 46.9965 211.953 45.4081C212.431 44.457 212.971 43.7801 214.025 42.8093C214.85 42.0496 215.378 41.5363 215.706 41.1757C215.848 41.0202 215.963 40.9038 215.963 40.917C215.963 40.9634 215.802 41.5374 215.593 42.2381C215.115 43.8388 214.979 44.5945 214.977 45.6472C214.976 46.5592 215.099 47.2186 215.397 47.9115C215.938 49.1666 216.9 50.0863 218.086 50.4809C218.785 50.7136 219.729 50.702 220.342 50.4529C220.941 50.2099 221.322 49.8619 221.94 48.995C222.34 48.4331 222.524 48.2339 222.807 48.0588C223.1 47.8768 223.305 47.8056 223.885 47.6833C224.836 47.4827 225.306 47.252 225.832 46.7269C226.776 45.7844 227.048 44.275 226.489 43.0735C226.073 42.1778 225.133 41.3601 223.934 40.8512C223.115 40.504 222.19 40.2904 220.339 40.0211C218.853 39.805 218.338 39.721 218.338 39.6948C218.338 39.6631 219.033 39.6373 220.485 39.6151C222.789 39.5799 223.713 39.4335 224.684 38.9503C225.263 38.6619 225.733 38.2946 226.09 37.8506C226.718 37.0702 227.01 36.2102 226.924 35.3879C226.88 34.957 226.819 34.7429 226.633 34.3673C226.499 34.0968 226.418 33.9831 226.189 33.7436C225.842 33.3813 225.511 33.1581 224.774 32.789C224.073 32.4377 223.749 32.2307 223.428 31.9271C223.119 31.6354 222.971 31.4448 222.666 30.9461C222.338 30.4094 222.158 30.1739 221.843 29.8737C221.416 29.4663 220.963 29.1935 220.502 29.0671C220.231 28.9928 219.526 28.9762 219.249 29.0376Z" fill="white" fill-opacity="0.24" style="mix-blend-mode:soft-light"/>
        <path fill-rule="evenodd" clip-rule="evenodd" d="M263.281 -5.63638C262.069 -4.51766 261.34 -2.73192 261.324 -0.841456C261.316 0.0704869 261.587 1.30172 262.02 2.32788C262.352 3.1119 263.398 4.78975 264.44 6.20998C265.341 7.43639 266.178 8.6476 266.163 8.70278C266.152 8.74632 266.123 8.71757 265.232 7.78147C262.391 4.79515 261.107 3.68522 259.617 2.92726C257.357 1.77683 254.585 1.92396 252.719 3.29354C251.574 4.13365 250.815 5.2057 250.493 6.43953C250.121 7.86419 250.274 9.00714 251.089 10.8828C251.519 11.8714 251.627 12.5911 251.469 13.4111C251.441 13.5559 251.236 14.1074 251.013 14.6368C250.216 16.529 250.099 17.5955 250.543 18.908C250.769 19.5763 251.426 20.6142 251.921 21.0846C252.631 21.7596 253.859 22.4123 254.875 22.6554C257.042 23.1737 259.443 22.7314 261.079 21.5123C262.062 20.7805 263.306 19.3842 264.895 17.2308C266.345 15.265 267.187 14.1938 267.265 14.2151C267.321 14.2307 266.936 15.7441 266.676 16.5264C266.54 16.9365 266.3 17.6255 266.142 18.0575C264.941 21.3551 264.493 23.6182 264.589 25.912C264.731 29.3108 266.168 33.4248 267.764 35.0048C268.22 35.4558 268.706 35.7426 269.265 35.8905C270.067 36.1031 270.975 36.0085 271.657 35.6413C272.204 35.3472 272.299 35.0521 272.046 34.4281C271.866 33.9822 271.523 33.5054 270.684 32.5337C267.896 29.3048 266.785 26.9987 266.592 24.0444C266.477 22.2755 266.678 20.8529 267.365 18.5829C267.902 16.8064 268.224 15.6302 268.389 14.8391C268.46 14.4979 268.527 14.2344 268.538 14.2536C268.577 14.3209 268.828 15.2837 269.116 16.4695C269.774 19.1785 270.212 20.3843 271.09 21.9091C271.85 23.23 272.575 24.0841 273.579 24.8419C275.396 26.2148 277.532 26.7564 279.546 26.3552C280.734 26.1184 282.066 25.3269 282.73 24.4632C283.378 23.6201 283.629 22.8037 283.781 21.0424C283.88 19.9009 283.976 19.4613 284.231 18.9759C284.497 18.4715 284.728 18.2008 285.45 17.5479C286.634 16.4769 287.109 15.7576 287.417 14.566C287.972 12.4271 287.096 10.0197 285.299 8.73868C283.959 7.7838 281.939 7.37179 279.81 7.61912C278.357 7.78784 276.864 8.23756 274.008 9.36689C271.715 10.2733 270.914 10.5741 270.892 10.5362C270.865 10.4903 271.831 9.88322 273.876 8.65918C277.12 6.71825 278.312 5.7477 279.287 4.25215C279.87 3.35935 280.23 2.4423 280.367 1.50672C280.607 -0.138126 280.302 -1.62187 279.494 -2.7423C279.071 -3.32941 278.805 -3.58909 278.227 -3.98028C277.811 -4.26209 277.601 -4.3602 277.075 -4.51882C276.28 -4.7587 275.623 -4.8104 274.267 -4.73986C272.977 -4.6728 272.344 -4.70711 271.633 -4.88272C270.951 -5.05139 270.581 -5.20594 269.731 -5.67776C268.817 -6.18551 268.363 -6.37808 267.665 -6.55459C266.719 -6.7941 265.846 -6.81666 265.085 -6.62132C264.638 -6.50655 263.623 -5.95253 263.281 -5.63638Z" fill="white" fill-opacity="0.14" style="mix-blend-mode:soft-light"/>
    </g>
    <defs>
        <clipPath id="clip0_166_139">
            <rect width="282" height="48" fill="white"/>
        </clipPath>
    </defs>
</svg>