<svg width="133" height="64" viewBox="0 0 133 64" fill="none" xmlns="http://www.w3.org/2000/svg">
    <g clip-path="url(#clip0_146_286)">
        <g opacity="0.64">
            <path fill-rule="evenodd" clip-rule="evenodd" d="M85.1863 -36.7847C79.6012 -35.541 74.3099 -31.492 70.9782 -25.913C69.3712 -23.2215 68.047 -19.1063 67.5699 -15.3197C67.2053 -12.4267 67.4374 -5.65888 68.1069 0.339208C68.685 5.51873 69.0998 10.5451 68.9608 10.6842C68.8509 10.7938 68.8133 10.6586 67.7601 6.35674C64.4 -7.3673 62.4664 -12.8581 59.3039 -17.6567C54.5038 -24.9401 45.9137 -29.2504 37.9229 -28.3846C33.0213 -27.8536 28.8794 -25.9726 25.7682 -22.8647C22.1759 -19.2763 20.653 -15.6233 19.8478 -8.66413C19.4234 -4.99584 18.4987 -2.67604 16.5994 -0.515098C16.2639 -0.133494 14.6893 1.15111 13.1003 2.3398C7.41993 6.58836 5.21571 9.55084 4.27264 14.2045C3.79239 16.5739 3.96662 20.7781 4.63797 23.0207C5.60125 26.2386 8.15912 30.2769 10.7937 32.7387C16.4103 37.9871 24.3966 40.7859 31.4341 39.9723C35.6583 39.4839 41.8237 37.4731 50.3399 33.8065C58.1142 30.4594 62.5057 28.724 62.7029 28.9208C62.8458 29.0637 59.0591 32.8926 56.9199 34.7682C55.7985 35.7515 53.8801 37.3838 52.6568 38.3957C43.3191 46.1194 38.0445 52.0655 34.3497 59.0332C28.8755 69.3571 26.0529 84.0202 28.1116 91.4411C28.6992 93.5594 29.6619 95.2417 31.0852 96.6376C33.1295 98.6423 36.0236 99.9165 38.7133 99.9961C40.8678 100.06 41.6644 99.3466 41.9886 97.0633C42.2203 95.4319 42.017 93.4302 41.181 89.1114C38.4035 74.7599 39.0647 66.016 43.6151 56.9236C46.3396 51.4795 49.4146 47.6046 55.4208 42.0477C60.1213 37.6986 63.1307 34.7608 65 32.6966C65.8061 31.8064 66.4654 31.1399 66.465 31.2154C66.4643 31.4811 65.5477 34.7671 64.3557 38.7779C61.6323 47.9406 60.8548 52.2666 60.8474 58.2926C60.8411 63.5131 61.5376 67.2874 63.239 71.2535C66.321 78.4384 71.8038 83.7027 78.5565 85.9614C82.5403 87.2938 87.9193 87.2269 91.4145 85.8014C94.8261 84.4102 96.9982 82.4183 100.515 77.4558C102.795 74.2394 103.846 73.0994 105.456 72.0968C107.13 71.055 108.294 70.6476 111.599 69.9476C117.02 68.7992 119.696 67.4787 122.693 64.4727C128.073 59.0775 129.62 50.4378 126.439 43.5599C124.068 38.4329 118.709 33.752 111.877 30.8392C107.215 28.8514 101.945 27.6288 91.3956 26.0872C82.9292 24.8502 79.9964 24.3697 79.9964 24.2197C79.9964 24.0381 83.9527 23.8905 92.2297 23.7633C105.354 23.5615 110.622 22.7235 116.152 19.9578C119.453 18.3068 122.129 16.2042 124.164 13.6631C127.742 9.19571 129.402 4.273 128.918 -0.434183C128.663 -2.90081 128.315 -4.12617 127.256 -6.27618C126.494 -7.825 126.033 -8.47564 124.727 -9.84671C122.751 -11.9204 120.867 -13.198 116.666 -15.3112C112.671 -17.3216 110.827 -18.5069 108.995 -20.2448C107.235 -21.9142 106.392 -23.0057 104.656 -25.8602C102.788 -28.9321 101.758 -30.2804 99.9661 -31.999C97.5345 -34.331 94.9497 -35.8922 92.3223 -36.616C90.7785 -37.0413 86.7643 -37.1363 85.1863 -36.7847Z" fill="url(#paint0_linear_146_286)" fill-opacity="0.16" style="mix-blend-mode:soft-light"/>
            <path d="M88.7842 -37.7061C90.1861 -37.6729 91.6498 -37.5421 92.5117 -37.3047C95.2774 -36.5428 97.9636 -34.9097 100.461 -32.5146C102.313 -30.7388 103.38 -29.3347 105.267 -26.2314C106.981 -23.4122 107.787 -22.3756 109.487 -20.7627C111.244 -19.0965 113.014 -17.9483 116.987 -15.9492C121.22 -13.8197 123.187 -12.4988 125.244 -10.3398C126.595 -8.92143 127.1 -8.21162 127.897 -6.5918C128.995 -4.36326 129.365 -3.0554 129.628 -0.507812C130.136 4.42383 128.391 9.52826 124.722 14.1094C122.614 16.741 119.852 18.9057 116.472 20.5967C110.788 23.4396 105.378 24.2755 92.2402 24.4775C89.8692 24.514 87.8547 24.5527 86.1875 24.5928C87.6434 24.8126 89.4005 25.0742 91.499 25.3809C102.058 26.9238 107.405 28.1555 112.157 30.1816L112.804 30.4648C119.442 33.4415 124.697 38.0939 127.087 43.2598C130.395 50.411 128.788 59.3711 123.199 64.9766C121.658 66.5221 120.177 67.6555 118.371 68.5469C116.799 69.3229 115.002 69.9042 112.744 70.4258L111.747 70.6465C108.474 71.3398 107.404 71.7257 105.834 72.7031C104.352 73.6258 103.369 74.6648 101.098 77.8691C97.5482 82.8773 95.2793 84.9969 91.6846 86.4629C88.0131 87.9603 82.4563 88.0187 78.3301 86.6387C71.364 84.3086 65.7366 78.8866 62.583 71.5352C60.8363 67.4633 60.1264 63.5895 60.1328 58.292C60.1403 52.1693 60.938 47.7691 63.6709 38.5742C64.2318 36.6868 64.7295 34.961 65.1006 33.6377C63.1899 35.6952 60.2697 38.5351 55.9062 42.5723C49.9429 48.0895 46.9292 51.8974 44.2539 57.2432C39.7989 66.1449 39.1216 74.7132 41.8818 88.9756C42.7157 93.2837 42.9471 95.3979 42.6963 97.1641C42.5289 98.3425 42.2195 99.3104 41.5137 99.9424C40.7957 100.585 39.8237 100.743 38.6924 100.71C35.8109 100.625 32.7485 99.2691 30.585 97.1475C29.063 95.6548 28.0404 93.8584 27.4229 91.6318C26.3497 87.7634 26.5641 82.1129 27.7041 76.1904C28.8481 70.2473 30.9439 63.9314 33.7188 58.6982C37.4745 51.6158 42.8264 45.6001 52.2012 37.8457C53.4196 36.8379 55.3333 35.21 56.4492 34.2314C57.5012 33.3091 58.9692 31.8956 60.1592 30.6924C60.2657 30.5846 60.3676 30.4765 60.4688 30.373C60.2087 30.473 59.9265 30.5801 59.625 30.6992C57.5407 31.5229 54.5068 32.7904 50.6221 34.4629C42.0995 38.1322 35.8521 40.1802 31.5166 40.6816H31.5156C24.2507 41.5213 16.0605 38.6384 10.3057 33.2607C7.58571 30.7191 4.95636 26.5736 3.9541 23.2256C3.59437 22.0239 3.37821 20.3457 3.30957 18.6895C3.2409 17.032 3.31631 15.3253 3.57227 14.0625C4.06168 11.6475 4.88698 9.64319 6.33691 7.69434C7.77599 5.76016 9.81057 3.9084 12.6729 1.76758C13.4597 1.17894 14.2425 0.567113 14.8682 0.0566406C15.5157 -0.471686 15.9415 -0.848858 16.0625 -0.986328C17.8419 -3.0108 18.7262 -5.18143 19.1387 -8.74609C19.545 -12.2577 20.1369 -14.9851 21.1035 -17.3037C22.075 -19.6337 23.4117 -21.5201 25.2637 -23.3701C28.5038 -26.6067 32.8032 -28.5484 37.8457 -29.0947C46.1297 -29.9923 54.9686 -25.533 59.9004 -18.0498C62.882 -13.5256 64.7745 -8.41625 67.6787 3.07715C67.5903 2.2124 67.4978 1.31721 67.3975 0.417969C66.7269 -5.58975 66.4856 -12.4278 66.8613 -15.4092C67.3482 -19.2728 68.6979 -23.4869 70.3652 -26.2793C73.7826 -32.0017 79.2278 -36.1891 85.0312 -37.4814C85.9102 -37.6772 87.3816 -37.7392 88.7842 -37.7061Z" stroke="white" stroke-opacity="0.56" style="mix-blend-mode:soft-light" stroke-width="1.42857"/>
        </g>
    </g>
    <defs>
        <linearGradient id="paint0_linear_146_286" x1="66.5" y1="-37" x2="66.5" y2="100" gradientUnits="userSpaceOnUse">
            <stop stop-color="white"/>
            <stop offset="1" stop-color="white" stop-opacity="0.48"/>
        </linearGradient>
        <clipPath id="clip0_146_286">
            <rect width="133" height="64" fill="white"/>
        </clipPath>
    </defs>
</svg>