<svg width="102" height="80" viewBox="0 0 102 80" fill="none" xmlns="http://www.w3.org/2000/svg">
    <g clip-path="url(#clip0_503_66)">
        <g filter="url(#filter0_f_503_66)">
            <ellipse cx="97.5" rx="89.5" ry="22" />
        </g>
        <path fill-rule="evenodd" clip-rule="evenodd" d="M62 10.25C36.1807 10.25 15.25 31.1807 15.25 57C15.25 82.8193 36.1807 103.75 62 103.75C87.8193 103.75 108.75 82.8193 108.75 57C108.75 31.1807 87.8193 10.25 62 10.25ZM66.25 29.375C66.25 27.0278 64.3472 25.125 62 25.125C59.6528 25.125 57.75 27.0278 57.75 29.375V31.5C49.5348 31.5 42.875 38.1598 42.875 46.375C42.875 54.5902 49.5348 61.25 57.75 61.25H66.25C69.7708 61.25 72.625 64.1042 72.625 67.625C72.625 71.1458 69.7708 74 66.25 74H57.0417C53.9121 74 51.375 71.463 51.375 68.3333C51.375 65.9861 49.4722 64.0833 47.125 64.0833C44.7778 64.0833 42.875 65.9861 42.875 68.3333C42.875 76.1574 49.2176 82.5 57.0417 82.5H57.75V84.625C57.75 86.9722 59.6528 88.875 62 88.875C64.3472 88.875 66.25 86.9722 66.25 84.625V82.5C74.4652 82.5 81.125 75.8402 81.125 67.625C81.125 59.4098 74.4652 52.75 66.25 52.75H57.75C54.2292 52.75 51.375 49.8958 51.375 46.375C51.375 42.8542 54.2292 40 57.75 40H66.9583C70.088 40 72.625 42.5371 72.625 45.6667C72.625 48.0139 74.5278 49.9167 76.875 49.9167C79.2222 49.9167 81.125 48.0139 81.125 45.6667C81.125 37.8426 74.7824 31.5 66.9583 31.5H66.25V29.375Z" fill="#d8d9e1" />
    </g>
</svg>