<svg width="103" height="80" viewBox="0 0 103 80" fill="none" xmlns="http://www.w3.org/2000/svg">
    <g clip-path="url(#clip0_453_265)">
        <g filter="url(#filter0_f_453_265)">
            <ellipse cx="103.5" rx="89.5" ry="22" />
        </g>
        <path d="M75.5865 12.75C66.2667 12.75 58.7115 20.3052 58.7115 29.625C58.7115 38.9448 66.2667 46.5 75.5865 46.5C84.9063 46.5 92.4615 38.9448 92.4615 29.625C92.4615 20.3052 84.9063 12.75 75.5865 12.75Z" fill="#d8d9e1" />
        <path d="M58.8308 11.9222C54.1386 16.3649 51.2115 22.6532 51.2115 29.625C51.2115 34.1141 52.4251 38.3198 54.542 41.9319C52.9024 42.463 51.153 42.75 49.3365 42.75C40.0167 42.75 32.4615 35.1948 32.4615 25.875C32.4615 16.5552 40.0167 9 49.3365 9C52.8571 9 56.1259 10.0781 58.8308 11.9222Z" fill="#d8d9e1" />
        <path d="M80.12 64.8499C80.12 67.8173 78.1572 70.3269 75.4517 71.1658L77.1913 71.0852C79.0925 71.0852 80.9411 70.4872 82.4603 69.3767L93.0686 61.6371C95.7162 59.7065 99.4221 59.9628 101.762 62.2394C104.362 64.768 104.362 68.8641 101.762 71.3884L92.6602 80.2427C90.2101 82.6261 87.0838 84.2534 83.6853 84.9155L70.8202 87.4184C68.2691 87.9139 65.639 87.8541 63.1142 87.2391L51.4785 84.4115C50.0866 84.0698 48.6596 83.8989 47.2238 83.8989C45.6994 83.8989 44.9372 83.8989 44.3257 83.6806C43.2665 83.3025 42.433 82.4689 42.0549 81.4098C41.8366 80.7982 41.8366 80.0361 41.8366 78.5117V65.6524C41.8366 64.5806 41.8366 64.0447 41.9742 63.5508C42.0961 63.1133 42.2965 62.7015 42.5656 62.3356C42.8693 61.9226 43.2911 61.5919 44.1346 60.9306L48.5806 57.4449C48.5806 57.4449 55.9484 54 60.0187 54C61.7048 54 63.3821 54.2052 65.0199 54.6112L75.0837 57.113C78.0431 57.8466 80.12 60.4925 80.12 63.527V64.8499Z" fill="#d8d9e1" />
        <path fill-rule="evenodd" clip-rule="evenodd" d="M26.7373 54C26.7703 54 26.8034 54 26.8366 54C26.8697 54 26.9028 54 26.9358 54C27.7235 53.9999 28.4908 53.9998 29.1437 54.0443C29.8576 54.0931 30.704 54.2073 31.5817 54.5709C33.4194 55.3321 34.8794 56.7921 35.6406 58.6298C36.0042 59.5075 36.1185 60.354 36.1672 61.0679C36.2117 61.7207 36.2116 62.488 36.2116 63.2757C36.2116 63.3087 36.2116 63.3418 36.2116 63.375L36.2116 82.2243C36.2116 83.0119 36.2117 83.7793 36.1672 84.4321C36.1185 85.146 36.0042 85.9924 35.6406 86.8701C34.8794 88.7078 33.4194 90.1679 31.5817 90.9291C30.704 91.2926 29.8575 91.4069 29.1436 91.4556C28.4908 91.5001 27.7235 91.5 26.9358 91.5H26.7373C25.9496 91.5 25.1823 91.5001 24.5294 91.4556C23.8156 91.4069 22.9691 91.2926 22.0914 90.9291C20.2537 90.1679 18.7937 88.7078 18.0325 86.8701C17.6689 85.9924 17.5546 85.146 17.5059 84.4321C17.4614 83.7793 17.4615 83.0119 17.4615 82.2242L17.4616 63.375C17.4616 63.3418 17.4615 63.3087 17.4615 63.2757C17.4615 62.488 17.4614 61.7207 17.5059 61.0679C17.5546 60.354 17.6689 59.5075 18.0325 58.6298C18.7937 56.7921 20.2537 55.3321 22.0914 54.5709C22.9691 54.2073 23.8156 54.0931 24.5295 54.0443C25.1823 53.9998 25.9496 53.9999 26.7373 54Z" fill="#d8d9e1" />
    </g>
    <defs>
        <clipPath id="clip0_453_265">
            <rect width="103" height="80" fill="white"/>
        </clipPath>
    </defs>
</svg>