<svg width="183" height="179" viewBox="0 0 183 179" fill="none" xmlns="http://www.w3.org/2000/svg">
    <g clip-path="url(#clip0_450_74)">
        <path d="M99.8906 -70.4854C102.383 -70.427 104.822 -70.1971 106.143 -69.8369C110.755 -68.5793 115.316 -65.859 119.627 -61.7666C122.796 -58.7583 124.616 -56.4059 127.95 -50.9795C131.076 -45.8915 132.614 -43.9163 135.81 -40.916C139.145 -37.784 142.5 -35.6555 149.676 -32.082C157.18 -28.3454 160.499 -26.1098 163.981 -22.4912C166.29 -20.0924 167.086 -18.9792 168.428 -16.2822C170.297 -12.5241 170.905 -10.4083 171.354 -6.09082C172.207 2.09948 169.293 10.7033 162.945 18.5479C159.35 22.9916 154.613 26.6783 148.754 29.5791C138.953 34.4313 129.609 35.9195 106.1 36.2773C98.6833 36.3902 93.1985 36.5124 89.5664 36.6465C87.7517 36.7135 86.3924 36.7831 85.4844 36.8574C85.033 36.8944 84.6801 36.9333 84.4346 36.9756C84.3156 36.9961 84.1979 37.0215 84.1016 37.0557C84.0566 37.0716 83.9849 37.1003 83.915 37.1504C83.8671 37.1848 83.7275 37.2967 83.6934 37.4961L83.6855 37.5869L83.6914 37.665C83.7172 37.8381 83.8227 37.9455 83.8643 37.9834C83.9226 38.0365 83.9839 38.0703 84.0225 38.0898C84.1035 38.1309 84.2003 38.1644 84.2949 38.1934C84.491 38.2534 84.7737 38.321 85.1416 38.3975C85.8828 38.5514 87.0236 38.7532 88.6299 39.0137C91.845 39.535 96.9557 40.2966 104.541 41.3936C123.439 44.127 132.829 46.2888 141.121 49.7881C153.288 54.9225 162.776 63.1531 166.958 72.1025C172.568 84.1086 169.838 99.2072 160.347 108.63C157.691 111.266 155.193 113.148 152.168 114.626C149.136 116.107 145.554 117.192 140.715 118.206C134.771 119.452 132.619 120.19 129.548 122.082C126.758 123.801 124.886 125.748 121.292 130.692L120.549 131.722C114.27 140.491 110.445 143.935 104.46 146.352C98.3191 148.831 88.8028 148.955 81.7627 146.625C69.81 142.668 60.0873 133.439 54.6152 120.812C51.5988 113.853 50.3589 107.228 50.3701 98.0234C50.3825 88.0671 51.5956 80.7467 55.7627 66.498L56.6367 63.5527C57.7053 59.9939 58.6503 56.7554 59.3291 54.3467C59.6684 53.1427 59.942 52.1438 60.1309 51.415C60.2251 51.0513 60.2987 50.7513 60.3496 50.5254C60.375 50.4127 60.3957 50.3139 60.4102 50.2334C60.4226 50.1641 60.4363 50.0742 60.4365 49.9961C60.4366 49.9113 60.4135 49.7167 60.2285 49.582C60.061 49.4602 59.8878 49.4837 59.832 49.4941C59.7178 49.5156 59.6317 49.5731 59.6133 49.585C59.5451 49.6289 59.4699 49.691 59.4014 49.751C59.2552 49.8789 59.0524 50.0734 58.8125 50.3135C58.3299 50.7965 57.6685 51.4925 56.9434 52.2852C53.6099 55.9285 48.2313 61.1264 39.8086 68.8398C29.0155 78.7236 23.4612 85.6438 18.5439 95.3691C10.3219 111.631 9.1482 127.264 14.1377 152.782C15.6371 160.45 15.9825 163.921 15.5811 166.72C15.2944 168.718 14.8123 169.894 14.0391 170.579C13.2731 171.258 12.1139 171.549 10.2207 171.493C5.53365 171.356 0.46414 169.152 -3.11523 165.678C-5.59636 163.269 -7.27907 160.364 -8.31055 156.684C-10.1238 150.214 -9.79864 140.512 -7.77441 130.104C-5.75298 119.709 -2.05083 108.678 2.82715 99.5723C9.40507 87.2941 18.8028 76.7965 35.5098 63.1182C37.7053 61.3206 41.1467 58.4224 43.1602 56.6748C45.0892 55.0007 47.7533 52.4613 49.9014 50.3115C50.9755 49.2366 51.9254 48.2539 52.5928 47.5215C52.9251 47.1568 53.1953 46.8463 53.376 46.6143C53.464 46.5012 53.5437 46.3908 53.5986 46.2939C53.6241 46.2491 53.6608 46.1785 53.6826 46.0967C53.6933 46.0566 53.7654 45.7861 53.5479 45.5703L53.5469 45.5693C53.4272 45.4513 53.2868 45.4199 53.2217 45.4092C53.145 45.3966 53.0711 45.3968 53.0117 45.4004C52.8913 45.4076 52.7513 45.4325 52.6035 45.4658C52.3033 45.5336 51.8938 45.6547 51.3867 45.8223C50.3686 46.1588 48.9068 46.7008 47.0283 47.4355C43.2683 48.9063 37.812 51.1619 30.8447 54.1309C15.5889 60.6322 4.59791 64.1737 -2.89453 65.0312C-15.3484 66.4563 -29.5187 61.5493 -39.4863 52.3301C-44.1474 48.0191 -48.6795 40.9314 -50.3779 35.3154C-50.9623 33.3834 -51.338 30.5714 -51.458 27.7051C-51.578 24.8395 -51.4405 21.969 -51.0215 19.9229C-50.1893 15.8582 -48.8066 12.5515 -46.3857 9.33105C-43.957 6.10007 -40.4687 2.93614 -35.3945 -0.820312C-33.9657 -1.87827 -32.5427 -2.97889 -31.4004 -3.90137C-30.2738 -4.81118 -29.3817 -5.57827 -29.0479 -5.9541C-25.5598 -9.88229 -23.8737 -14.102 -23.1045 -20.6816C-22.3857 -26.8308 -21.3495 -31.4847 -19.708 -35.3818C-18.0699 -39.2709 -15.8191 -42.4287 -12.6396 -45.5723C-7.15521 -50.995 0.156672 -54.2902 8.84277 -55.2217C22.9597 -56.7356 38.18 -49.1918 46.6885 -36.4131C52.302 -27.9822 55.7508 -18.3218 61.7725 6.02246C62.7147 9.83201 63.2062 11.8105 63.4863 12.8096C63.6205 13.2882 63.7206 13.6013 63.8184 13.7773C63.8457 13.8266 63.8876 13.8926 63.9492 13.9531C64.0137 14.0165 64.1241 14.096 64.2803 14.1143C64.4372 14.1326 64.5602 14.0795 64.6309 14.0371C64.6956 13.9983 64.7421 13.953 64.7607 13.9346L64.7617 13.9336C64.8312 13.8647 64.8656 13.7919 64.8809 13.7559C64.8984 13.7143 64.9092 13.6757 64.916 13.6475C64.9296 13.5911 64.9374 13.5323 64.9424 13.4814C64.9526 13.3774 64.9572 13.2466 64.958 13.0986C64.9596 12.7994 64.9465 12.3839 64.9209 11.874C64.8696 10.8519 64.7673 9.42083 64.625 7.71484C64.3403 4.30134 63.8944 -0.228849 63.376 -4.82617C62.177 -15.4582 61.7677 -27.4135 62.4131 -32.4824C63.2611 -39.144 65.6162 -46.3734 68.4531 -51.0762C74.3627 -60.8711 83.7369 -67.9573 93.5938 -70.1299C94.9454 -70.4279 97.3994 -70.5436 99.8906 -70.4854Z" stroke="white" stroke-opacity="0.36" style="mix-blend-mode:soft-light"/>
    </g>
    <defs>
        <clipPath id="clip0_450_74">
            <rect width="183" height="179" fill="white"/>
        </clipPath>
    </defs>
</svg>