<svg width="129" height="92" viewBox="0 0 129 92" fill="none" xmlns="http://www.w3.org/2000/svg">
    <g filter="url(#filter0_i_448_155)">
        <g clip-path="url(#clip0_448_155)">
            <path d="M111.916 -28.9912C113.466 -28.9549 114.919 -28.8112 115.658 -28.6094C118.408 -27.8588 121.162 -26.2258 123.793 -23.7266C125.716 -21.8997 126.818 -20.4811 128.883 -17.1172C130.857 -13.9006 131.855 -12.6124 133.91 -10.6816C136.068 -8.65414 138.234 -7.28688 142.74 -5.04102C147.4 -2.71898 149.395 -1.36276 151.493 0.819336C152.892 2.27452 153.347 2.91458 154.151 4.5332C155.282 6.8079 155.64 8.05108 155.913 10.6729C156.423 15.5777 154.685 20.7835 150.807 25.5811C148.63 28.2737 145.752 30.5212 142.166 32.2979C136.188 35.2598 130.483 36.1924 115.802 36.416C111.165 36.4866 107.731 36.5633 105.453 36.6475C104.317 36.6895 103.455 36.7335 102.871 36.7812C102.584 36.8048 102.339 36.8314 102.154 36.8633C102.07 36.8779 101.95 36.9012 101.834 36.9424C101.782 36.9608 101.667 37.005 101.546 37.0918C101.461 37.1529 101.158 37.391 101.12 37.832L101.116 37.9229L101.127 38.0742C101.177 38.4103 101.381 38.6142 101.452 38.6787C101.554 38.7718 101.655 38.8252 101.703 38.8496C101.807 38.9023 101.912 38.9374 101.982 38.959C102.136 39.0062 102.339 39.0537 102.574 39.1025C103.053 39.2021 103.778 39.3301 104.783 39.4932C106.799 39.8203 110 40.2982 114.74 40.9844C126.543 42.6929 132.337 44.036 137.434 46.1885C144.933 49.3557 150.704 54.4042 153.226 59.8037C156.608 67.0481 154.96 76.181 149.231 81.873C147.613 83.4812 146.112 84.6097 144.303 85.4941C142.709 86.2734 140.843 86.8796 138.393 87.4404L137.306 87.6787C133.56 88.4646 132.125 88.9455 130.106 90.1904C128.123 91.4138 126.849 92.8199 124.284 96.4053C120.392 101.846 118.094 103.879 114.529 105.319C110.86 106.802 105.081 106.887 100.817 105.475C93.5514 103.067 87.6157 97.4452 84.2656 89.709C82.4247 85.4579 81.662 81.4102 81.6689 75.7275C81.6771 69.1782 82.52 64.483 85.5566 54.3623C86.2252 52.1339 86.8166 50.1042 87.2422 48.5928C87.4548 47.8378 87.6273 47.2069 87.7471 46.7441C87.8067 46.514 87.8555 46.3186 87.8896 46.167C87.9066 46.0918 87.9221 46.0193 87.9336 45.9551C87.9411 45.9131 87.9596 45.8024 87.96 45.6865C87.9603 45.5232 87.915 45.1376 87.5479 44.8701C87.2151 44.6278 86.8723 44.6756 86.7676 44.6953C86.5524 44.7358 86.3996 44.8406 86.3857 44.8496C86.2976 44.9064 86.2185 44.9747 86.1729 45.0146C86.0638 45.1102 85.924 45.2447 85.7715 45.3975C85.4604 45.709 85.0396 46.1527 84.582 46.6533C82.5209 48.9079 79.1793 52.1418 73.916 56.9658C67.1293 63.1859 63.5977 67.5779 60.4766 73.7559C55.2444 84.1123 54.5257 94.0626 57.6611 110.111C58.6003 114.918 58.7898 116.98 58.5576 118.6C58.3838 119.813 58.1107 120.337 57.8184 120.597C57.5406 120.843 57.0403 121.029 55.9082 120.996C53.1615 120.916 50.1541 119.613 48.0322 117.552C46.5771 116.138 45.583 114.432 44.9678 112.234C43.8774 108.341 44.0586 102.398 45.3164 95.9248C46.5686 89.4805 48.8611 82.6464 51.873 77.0195C55.925 69.4502 61.724 62.9503 72.1299 54.4238C73.5069 53.2955 75.6622 51.4785 76.9258 50.3809C78.1483 49.319 79.8263 47.7189 81.1748 46.3682C81.8494 45.6924 82.4516 45.0689 82.8789 44.5996C83.0898 44.368 83.2727 44.1579 83.4023 43.9912C83.4628 43.9136 83.538 43.8132 83.5977 43.708C83.6234 43.6625 83.6797 43.5583 83.7158 43.4229C83.7294 43.3719 83.8764 42.849 83.4512 42.4277H83.4502C83.2264 42.2065 82.9713 42.1535 82.876 42.1377C82.7577 42.1182 82.6543 42.1202 82.5908 42.124C82.4607 42.1319 82.3312 42.1568 82.2256 42.1807C82.0049 42.2305 81.7243 42.315 81.4014 42.4219C80.7472 42.6383 79.819 42.9824 78.6416 43.4434C76.282 44.3671 72.8651 45.7817 68.5088 47.6396C58.9803 51.7036 52.1887 53.882 47.6123 54.4062C40.0453 55.2728 31.3842 52.2837 25.2881 46.6406C22.4574 44.0204 19.6953 39.6895 18.6719 36.3027C18.3302 35.1721 18.0992 33.4778 18.0254 31.7129C17.9516 29.9497 18.0389 28.2157 18.2852 27.0117C18.7877 24.5551 19.6147 22.5836 21.0586 20.6611C22.5183 18.7177 24.6379 16.7842 27.7881 14.4502C28.6881 13.7832 29.5847 13.0884 30.3066 12.5049C30.9972 11.9468 31.6051 11.4301 31.8594 11.1436C34.1559 8.55522 35.2506 5.77122 35.7432 1.55469C36.1888 -2.26062 36.8259 -5.10049 37.8164 -7.4541C38.8001 -9.79147 40.151 -11.6936 42.084 -13.6064C45.3872 -16.875 49.806 -18.8791 55.1006 -19.4473C63.6445 -20.3642 72.9177 -15.7857 78.1074 -7.98535C81.3277 -3.14495 83.4043 2.37397 86.7529 15.5947L87.4404 18.3438C88.0275 20.7194 88.3379 21.9712 88.5166 22.6094C88.5942 22.8864 88.6772 23.1676 88.7852 23.3623C88.818 23.4215 88.8816 23.527 88.9863 23.6299C89.0966 23.7382 89.2993 23.8882 89.5947 23.9229C89.8923 23.9577 90.1228 23.8563 90.248 23.7812C90.362 23.7129 90.439 23.6359 90.459 23.6162L90.46 23.6152C90.5942 23.4822 90.6579 23.3439 90.6836 23.2832C90.7141 23.211 90.7317 23.148 90.7412 23.1084C90.7602 23.0295 90.7689 22.958 90.7734 22.9121C90.7829 22.8155 90.7856 22.7084 90.7861 22.6084C90.7872 22.4021 90.7779 22.1275 90.7617 21.8047C90.7291 21.1542 90.6643 20.2506 90.5752 19.1807C90.3966 17.0378 90.1176 14.1968 89.793 11.3154C89.0447 4.67467 88.7981 -2.7343 89.1904 -5.81934C89.7109 -9.91138 91.1578 -14.3384 92.8721 -17.1826C96.4819 -23.1707 102.192 -27.4711 108.144 -28.7842H108.145C108.904 -28.9516 110.367 -29.0275 111.916 -28.9912Z" stroke="white" stroke-opacity="0.16" style="mix-blend-mode:soft-light" stroke-width="2"/>
        </g>
    </g>
    <defs>
        <filter id="filter0_i_448_155" x="0" y="0" width="129" height="92" filterUnits="userSpaceOnUse" color-interpolation-filters="sRGB">
            <feFlood flood-opacity="0" result="BackgroundImageFix"/>
            <feBlend mode="normal" in="SourceGraphic" in2="BackgroundImageFix" result="shape"/>
            <feColorMatrix in="SourceAlpha" type="matrix" values="0 0 0 0 0 0 0 0 0 0 0 0 0 0 0 0 0 0 127 0" result="hardAlpha"/>
            <feOffset dy="-2"/>
            <feComposite in2="hardAlpha" operator="arithmetic" k2="-1" k3="1"/>
            <feColorMatrix type="matrix" values="0 0 0 0 1 0 0 0 0 1 0 0 0 0 1 0 0 0 0.01 0"/>
            <feBlend mode="normal" in2="shape" result="effect1_innerShadow_448_155"/>
        </filter>
        <clipPath id="clip0_448_155">
            <rect width="129" height="92" fill="white"/>
        </clipPath>
    </defs>
</svg>